<svg width="20" height="20" viewBox="0 0 20 20" fill="none" xmlns="http://www.w3.org/2000/svg">
<path d="M10.75 1C15.582 1 19.5 4.91797 19.5 9.75C19.5 14.582 15.582 18.5 10.75 18.5C5.91797 18.5 2 14.582 2 9.75C2 4.91797 5.91797 1 10.75 1ZM10.75 17.0156C14.7617 17.0156 18.0156 13.7617 18.0156 9.75C18.0156 5.73828 14.7617 2.48438 10.75 2.48438C6.73828 2.48438 3.48438 5.73828 3.48438 9.75C3.48438 13.7617 6.73828 17.0156 10.75 17.0156Z" fill="#D4233D"/>
<path d="M7.33789 12.2227L10.123 10.209V5.375C10.123 5.28906 10.1934 5.21875 10.2793 5.21875H11.2188C11.3047 5.21875 11.375 5.28906 11.375 5.375V10.7539C11.375 10.8047 11.3516 10.8516 11.3105 10.8809L8.08008 13.2363C8.00977 13.2871 7.91211 13.2715 7.86133 13.2031L7.30273 12.4414C7.25195 12.3691 7.26758 12.2715 7.33789 12.2227Z" fill="#D4233D"/>
</svg>
