<svg width="20" height="21" viewBox="0 0 20 21" fill="none" xmlns="http://www.w3.org/2000/svg">
<path d="M10 20C5.07485 20 1 15.7932 1 10.5C1 5.20676 5.07485 1 10 1C14.9251 1 19 5.20676 19 10.5C19 15.7932 14.9251 20 10 20Z" fill="white" stroke="#1C281C" stroke-width="2"/>
<path d="M11.6929 3.15C11.4053 4.34173 11.0868 5.51463 11.0276 6.75983C10.9771 7.82098 11.0113 8.89245 11.0113 9.95511C11.0113 11.3157 11.0113 12.6763 11.0113 14.0369C11.0113 14.9021 11.0113 15.7674 11.0113 16.6327C11.0113 17.0283 11.362 17.2759 11.6064 17.5C12.2951 18.1316 12.9926 17.8307 13.597 17.213C14.3627 16.4307 15.1872 15.8011 15.8365 14.8533C16.1382 14.4128 16.3753 14.0181 16.5072 13.4693C16.6841 12.7331 16.6448 11.9339 16.8534 11.2115C17.2452 9.85466 16.7629 8.06419 16.4423 6.77259C16.2072 5.82548 15.3167 5.08429 14.6356 4.57863C14.3604 4.37435 14.0141 4.40975 13.7376 4.27249C13.3916 4.10069 13.1002 3.80744 12.764 3.6092" stroke="#1C281C" stroke-width="5" stroke-linecap="round" stroke-linejoin="round"/>
<path d="M12.5375 6.79459C12.3689 6.64167 11.847 6.22799 12.0436 6.31628C12.121 6.35103 12.8324 6.85894 12.8706 6.68936C12.887 6.6164 12.5718 6.27118 12.522 6.30193C12.5042 6.31291 12.5261 6.35208 12.5355 6.37368C12.6441 6.62145 12.8492 6.90299 12.9848 7.08635C13.6807 8.02728 14.4491 8.88296 15.2139 9.73617C15.4699 10.0217 15.6977 10.3567 15.9925 10.578C16.0191 10.598 15.9679 10.5065 15.9499 10.4752C15.8285 10.2644 15.4276 9.65592 15.3437 9.52811C15.0142 9.02639 14.6835 8.52403 14.3386 8.03818C14.2608 7.92863 14.1046 7.71096 14.2669 8.04058C14.4451 8.40226 14.6539 8.73862 14.8382 9.09524C14.9257 9.26458 15.1571 9.75385 15.0145 9.65725C14.6625 9.41888 14.343 8.81854 14.1062 8.44953C13.849 8.04882 13.6145 7.62973 13.378 7.21071C12.7741 6.1407 14.4798 9.43669 15.0048 10.5684C15.2614 11.1217 14.3722 9.56034 14.0578 9.05459C13.9877 8.9419 13.9174 8.82941 13.8467 8.71738C13.8026 8.64768 13.6971 8.42503 13.7111 8.51171C13.725 8.59787 13.9354 8.86184 13.957 8.89914C14.3052 9.49794 14.5668 10.1615 14.8847 10.7837C14.9357 10.8835 15.1021 11.1716 15.0416 11.0802C14.9474 10.9381 14.8687 10.7741 14.7879 10.621C14.6673 10.3928 14.5542 10.1502 14.4083 9.94424C14.3911 9.92002 14.3757 9.87335 14.3502 9.87966C14.2729 9.89875 14.3941 10.0669 14.4238 10.1571C14.5267 10.4698 14.6343 10.7801 14.7336 11.0946C14.7537 11.158 14.7772 11.2202 14.7917 11.2859C14.8135 11.3841 14.769 11.3492 14.7259 11.305C14.4101 10.9813 14.1585 10.5421 13.9125 10.1403C13.9033 10.1253 13.8938 10.1106 13.8854 10.0949C13.8627 10.053 13.9336 10.1764 13.9551 10.2193C14.0503 10.4088 14.1346 10.6067 14.2204 10.8028C14.2725 10.9219 14.4723 11.3257 14.2611 10.9941C14.2036 10.9038 14.0538 10.5819 13.9222 10.6402C13.6785 10.748 13.7367 11.7968 13.7382 11.9029C13.7569 13.2117 13.9671 14.4473 14.1836 15.7174C14.209 15.8661 14.0451 15.4657 13.9861 15.3324C13.8092 14.9326 13.6357 14.5304 13.4535 14.1342C13.1631 13.5025 13.39 14.1114 13.4748 14.3686C13.5028 14.4534 13.5315 14.538 13.5562 14.6245C13.5789 14.7041 13.6565 14.8365 13.5949 14.8732C13.5755 14.8847 13.5557 14.8491 13.5407 14.8301C13.4673 14.7374 13.3446 14.5143 13.2928 14.426C13.2367 14.3303 13.1257 14.0428 13.1049 14.1581C13.0657 14.3759 13.2889 14.8455 13.347 15.0406C13.3712 15.1218 13.3959 15.2027 13.4187 15.2845C13.4548 15.4145 13.4467 15.3943 13.3935 15.2917C13.2454 15.0062 13.1025 14.7168 12.9519 14.4331C12.7761 14.102 12.8128 14.1971 12.9074 14.4307C12.9176 14.456 12.8708 14.3963 12.8551 14.3757C12.8097 14.3162 12.8583 14.541 12.8764 14.6197C12.9219 14.8177 13.0923 15.1965 12.9054 14.7967C12.874 14.7293 12.7363 14.2761 12.7466 14.5479C12.7504 14.6479 12.8414 15.0532 12.7118 14.8349C12.7101 14.8321 12.6014 14.6307 12.6634 14.799C12.7426 15.0144 12.8577 15.2023 12.9558 15.4041" stroke="#1C281C" stroke-linecap="round" stroke-linejoin="round"/>
<line x1="11.1665" y1="1.40017" x2="11.1665" y2="18.9002" stroke="#1C281C" stroke-width="5"/>
</svg>
