<svg width="27" height="27" viewBox="0 0 27 27" fill="none" xmlns="http://www.w3.org/2000/svg">
<path fill-rule="evenodd" clip-rule="evenodd" d="M25.5096 0H1.4904C0.6669 0 0 0.6669 0 1.4904V25.5096C0 26.3331 0.6669 27 1.4904 27H14.4207V16.5443H10.9026V12.47H14.4207V9.4635C14.4207 5.9751 16.551 4.077 19.6628 4.077C21.1532 4.077 22.4329 4.1877 22.8069 4.23765V7.88265H20.6496C18.9567 7.88265 18.63 8.68725 18.63 9.86715V12.4686H22.6651L22.1387 16.5429H18.6287V27H25.5096C26.3331 27 27 26.3331 27 25.5096V1.4904C27 0.6669 26.3331 0 25.5096 0Z" fill="#CC0809"/>
</svg>
