<svg width="18" height="18" viewBox="0 0 18 18" fill="none" xmlns="http://www.w3.org/2000/svg">
<g clip-path="url(#clip0_1_6942)">
<path d="M1.5 1.68739H3.9375V0.562387C3.9374 0.413203 3.99657 0.270089 4.10199 0.164529C4.20741 0.0589699 4.35044 -0.000388692 4.49963 -0.000488148C4.64881 -0.000587604 4.79192 0.0585802 4.89748 0.163999C5.00304 0.269418 5.0624 0.412453 5.0625 0.561637V1.68739H8.4375V0.562387C8.43745 0.488518 8.45195 0.415363 8.48017 0.347099C8.5084 0.278834 8.54979 0.216797 8.60199 0.164529C8.65419 0.112262 8.71617 0.0707869 8.78439 0.0424731C8.85262 0.0141593 8.92576 -0.00043891 8.99963 -0.000488156C9.14881 -0.000587612 9.29192 0.0585802 9.39748 0.163999C9.50304 0.269418 9.5624 0.412453 9.5625 0.561637V1.68739H12.9375V0.562387C12.9375 0.488518 12.952 0.415363 12.9802 0.347099C13.0084 0.278834 13.0498 0.216797 13.102 0.164529C13.1542 0.112262 13.2162 0.0707869 13.2844 0.0424731C13.3526 0.0141593 13.4258 -0.00043891 13.4996 -0.000488156C13.6488 -0.000587612 13.7919 0.0585802 13.8975 0.163999C14.003 0.269418 14.0624 0.412453 14.0625 0.561637V1.68739H16.5C16.8977 1.68739 17.2791 1.84532 17.5604 2.12646C17.8417 2.4076 17.9998 2.78894 18 3.18664V16.4991C18 16.897 17.842 17.2785 17.5607 17.5598C17.2794 17.8411 16.8978 17.9991 16.5 17.9991H1.5C1.10217 17.9991 0.720644 17.8411 0.439341 17.5598C0.158035 17.2785 0 16.897 0 16.4991V3.18664C0.000198364 2.78894 0.158321 2.4076 0.439606 2.12646C0.720888 1.84532 1.1023 1.68739 1.5 1.68739ZM1.125 16.4999C1.125 16.5992 1.16441 16.6945 1.23457 16.7648C1.30473 16.8351 1.39992 16.8747 1.49925 16.8749H16.5C16.5995 16.8749 16.6948 16.8354 16.7652 16.7651C16.8355 16.6947 16.875 16.5993 16.875 16.4999V3.18739C16.8748 3.08806 16.8352 2.99287 16.7649 2.92271C16.6946 2.85254 16.5993 2.81314 16.5 2.81314H14.0625V3.93814C14.0626 4.08732 14.0034 4.23043 13.898 4.33599C13.7926 4.44155 13.6496 4.50091 13.5004 4.50101C13.3512 4.50111 13.2081 4.44194 13.1025 4.33652C12.997 4.23111 12.9376 4.08807 12.9375 3.93889V2.81314H9.5625V3.93814C9.5626 4.08732 9.50343 4.23043 9.39801 4.33599C9.29259 4.44155 9.14956 4.50091 9.00037 4.50101C8.85119 4.50111 8.70808 4.44194 8.60252 4.33652C8.49696 4.23111 8.4376 4.08807 8.4375 3.93889V2.81314H5.0625V3.93814C5.0626 4.08732 5.00343 4.23043 4.89801 4.33599C4.79259 4.44155 4.64956 4.50091 4.50037 4.50101C4.35119 4.50111 4.20808 4.44194 4.10252 4.33652C3.99696 4.23111 3.9376 4.08807 3.9375 3.93889V2.81314H1.5C1.4008 2.81333 1.30573 2.85283 1.23558 2.92297C1.16544 2.99311 1.12595 3.08819 1.12575 3.18739L1.125 16.4999Z" fill="#D4233D"/>
<path d="M14.0625 6.75H11.8125V8.4375H14.0625V6.75ZM14.0625 9.5625H11.8125V11.25H14.0625V9.5625ZM14.0625 12.375H11.8125V14.0625H14.0625V12.375ZM10.125 12.375H7.875V14.0625H10.125V12.375ZM10.125 9.5625H7.875V11.25H10.125V9.5625ZM10.125 6.75H7.875V8.4375H10.125V6.75ZM6.1875 12.375H3.9375V14.0625H6.1875V12.375ZM6.1875 9.5625H3.9375V11.25H6.1875V9.5625ZM6.1875 6.75H3.9375V8.4375H6.1875V6.75Z" fill="#D4233D"/>
</g>
<defs>
<clipPath id="clip0_1_6942">
<rect width="18" height="18" fill="white"/>
</clipPath>
</defs>
</svg>
