<svg width="307" height="276" viewBox="0 0 307 276" fill="none" xmlns="http://www.w3.org/2000/svg">
<rect width="307" height="276" rx="25" fill="white"/>
<rect x="0.5" y="0.5" width="306" height="275" rx="24.5" stroke="#B1B3B3" stroke-opacity="0.5"/>
<path d="M24.3083 66V54.8H28.3243C29.2629 54.8 30.0683 54.9493 30.7403 55.248C31.4123 55.5467 31.9296 55.9787 32.2923 56.544C32.6549 57.0987 32.8363 57.776 32.8363 58.576C32.8363 59.3547 32.6549 60.0267 32.2923 60.592C31.9296 61.1573 31.4123 61.5893 30.7403 61.888C30.0683 62.1867 29.2629 62.336 28.3243 62.336H24.7563L25.1243 61.952V66H24.3083ZM25.1243 62L24.7563 61.6H28.3243C29.5296 61.6 30.4416 61.3387 31.0603 60.816C31.6896 60.2827 32.0043 59.536 32.0043 58.576C32.0043 57.6053 31.6896 56.8587 31.0603 56.336C30.4416 55.8027 29.5296 55.536 28.3243 55.536H24.7563L25.1243 55.136V62ZM34.5895 66V54.8H35.2775L43.2615 64.992H42.8935V54.8H43.7095V66H43.0375L35.0375 55.808H35.4055V66H34.5895Z" fill="#363B3B"/>
<path d="M65.8817 66L62.0737 54.8H62.9377L66.5537 65.504H66.1217L69.8497 54.8H70.6337L74.3297 65.504H73.9137L77.5617 54.8H78.3617L74.5697 66H73.7057L70.1217 55.648H70.3297L66.7457 66H65.8817ZM82.0453 66V55.536H78.0133V54.8H86.8933V55.536H82.8613V66H82.0453Z" fill="#363B3B"/>
<path d="M109.149 66.08C108.317 66.08 107.528 65.9413 106.781 65.664C106.045 65.376 105.475 65.008 105.069 64.56L105.437 63.952C105.821 64.3467 106.344 64.6827 107.005 64.96C107.677 65.2267 108.387 65.36 109.133 65.36C109.88 65.36 110.488 65.264 110.957 65.072C111.437 64.8693 111.789 64.6027 112.013 64.272C112.248 63.9413 112.365 63.5733 112.365 63.168C112.365 62.688 112.237 62.304 111.981 62.016C111.725 61.728 111.389 61.4987 110.973 61.328C110.557 61.1573 110.104 61.0133 109.613 60.896C109.123 60.7787 108.627 60.656 108.125 60.528C107.624 60.3893 107.165 60.2133 106.749 60C106.333 59.7867 105.997 59.4987 105.741 59.136C105.496 58.7627 105.373 58.2827 105.373 57.696C105.373 57.1627 105.512 56.672 105.789 56.224C106.067 55.776 106.499 55.4133 107.085 55.136C107.672 54.8587 108.424 54.72 109.341 54.72C109.96 54.72 110.568 54.8107 111.165 54.992C111.773 55.1733 112.291 55.4187 112.717 55.728L112.413 56.384C111.944 56.064 111.437 55.8293 110.893 55.68C110.36 55.52 109.843 55.44 109.341 55.44C108.627 55.44 108.035 55.5413 107.565 55.744C107.096 55.9467 106.749 56.2187 106.525 56.56C106.301 56.8907 106.189 57.264 106.189 57.68C106.189 58.16 106.312 58.544 106.557 58.832C106.813 59.12 107.149 59.3493 107.565 59.52C107.981 59.6907 108.44 59.8347 108.941 59.952C109.443 60.0693 109.939 60.1973 110.429 60.336C110.92 60.464 111.373 60.6347 111.789 60.848C112.205 61.0613 112.541 61.3493 112.797 61.712C113.053 62.0747 113.181 62.544 113.181 63.12C113.181 63.6427 113.037 64.1333 112.749 64.592C112.461 65.04 112.019 65.4027 111.421 65.68C110.835 65.9467 110.077 66.08 109.149 66.08ZM108.461 53.888L110.685 52H111.837L109.325 53.888H108.461ZM114.955 66V54.8H118.971C119.91 54.8 120.715 54.9493 121.387 55.248C122.059 55.5467 122.577 55.9787 122.939 56.544C123.302 57.0987 123.483 57.776 123.483 58.576C123.483 59.3547 123.302 60.0267 122.939 60.592C122.577 61.1467 122.059 61.5787 121.387 61.888C120.715 62.1867 119.91 62.336 118.971 62.336H115.403L115.771 61.952V66H114.955ZM122.731 66L119.819 61.936H120.747L123.659 66H122.731ZM115.771 62L115.403 61.616H118.971C120.177 61.616 121.089 61.3493 121.707 60.816C122.337 60.2827 122.651 59.536 122.651 58.576C122.651 57.6053 122.337 56.8587 121.707 56.336C121.089 55.8027 120.177 55.536 118.971 55.536H115.403L115.771 55.136V62Z" fill="#363B3B"/>
<path d="M142.581 66.08C141.749 66.08 140.976 65.9413 140.261 65.664C139.557 65.376 138.944 64.976 138.421 64.464C137.898 63.952 137.493 63.3547 137.205 62.672C136.917 61.9787 136.773 61.2213 136.773 60.4C136.773 59.5787 136.917 58.8267 137.205 58.144C137.493 57.4507 137.898 56.848 138.421 56.336C138.954 55.824 139.573 55.4293 140.277 55.152C140.981 54.864 141.749 54.72 142.581 54.72C143.37 54.72 144.106 54.848 144.789 55.104C145.482 55.36 146.074 55.7493 146.565 56.272L146.053 56.8C145.573 56.3307 145.04 55.9947 144.453 55.792C143.877 55.5787 143.264 55.472 142.613 55.472C141.898 55.472 141.232 55.5947 140.613 55.84C140.005 56.0853 139.472 56.432 139.013 56.88C138.565 57.328 138.213 57.8507 137.957 58.448C137.712 59.0453 137.589 59.696 137.589 60.4C137.589 61.104 137.712 61.7547 137.957 62.352C138.213 62.9493 138.565 63.472 139.013 63.92C139.472 64.368 140.005 64.7147 140.613 64.96C141.232 65.2053 141.898 65.328 142.613 65.328C143.264 65.328 143.877 65.2267 144.453 65.024C145.04 64.8107 145.573 64.464 146.053 63.984L146.565 64.512C146.074 65.0347 145.482 65.4293 144.789 65.696C144.106 65.952 143.37 66.08 142.581 66.08ZM147.098 66V65.424L155.082 55.216L155.162 55.536H147.194V54.8H155.946V55.376L147.978 65.584L147.882 65.264H156.122V66H147.098ZM160.138 66L156.33 54.8H157.194L160.81 65.504H160.378L164.106 54.8H164.89L168.586 65.504H168.17L171.818 54.8H172.618L168.826 66H167.962L164.378 55.648H164.586L161.002 66H160.138Z" fill="#363B3B"/>
<path d="M187.258 66V54.8H191.274C192.213 54.8 193.018 54.9493 193.69 55.248C194.362 55.5467 194.879 55.9787 195.242 56.544C195.605 57.0987 195.786 57.776 195.786 58.576C195.786 59.3547 195.605 60.0267 195.242 60.592C194.879 61.1573 194.362 61.5893 193.69 61.888C193.018 62.1867 192.213 62.336 191.274 62.336H187.706L188.074 61.952V66H187.258ZM188.074 62L187.706 61.6H191.274C192.479 61.6 193.391 61.3387 194.01 60.816C194.639 60.2827 194.954 59.536 194.954 58.576C194.954 57.6053 194.639 56.8587 194.01 56.336C193.391 55.8027 192.479 55.536 191.274 55.536H187.706L188.074 55.136V62ZM199.293 66V55.536H195.261V54.8H204.141V55.536H200.109V66H199.293Z" fill="#363B3B"/>
<path d="M229.451 66.08C228.619 66.08 227.83 65.9413 227.083 65.664C226.347 65.376 225.777 65.008 225.371 64.56L225.739 63.952C226.123 64.3467 226.646 64.6827 227.307 64.96C227.979 65.2267 228.689 65.36 229.435 65.36C230.182 65.36 230.79 65.264 231.259 65.072C231.739 64.8693 232.091 64.6027 232.315 64.272C232.55 63.9413 232.667 63.5733 232.667 63.168C232.667 62.688 232.539 62.304 232.283 62.016C232.027 61.728 231.691 61.4987 231.275 61.328C230.859 61.1573 230.406 61.0133 229.915 60.896C229.425 60.7787 228.929 60.656 228.427 60.528C227.926 60.3893 227.467 60.2133 227.051 60C226.635 59.7867 226.299 59.4987 226.043 59.136C225.798 58.7627 225.675 58.2827 225.675 57.696C225.675 57.1627 225.814 56.672 226.091 56.224C226.369 55.776 226.801 55.4133 227.387 55.136C227.974 54.8587 228.726 54.72 229.643 54.72C230.262 54.72 230.87 54.8107 231.467 54.992C232.075 55.1733 232.593 55.4187 233.019 55.728L232.715 56.384C232.246 56.064 231.739 55.8293 231.195 55.68C230.662 55.52 230.145 55.44 229.643 55.44C228.929 55.44 228.337 55.5413 227.867 55.744C227.398 55.9467 227.051 56.2187 226.827 56.56C226.603 56.8907 226.491 57.264 226.491 57.68C226.491 58.16 226.614 58.544 226.859 58.832C227.115 59.12 227.451 59.3493 227.867 59.52C228.283 59.6907 228.742 59.8347 229.243 59.952C229.745 60.0693 230.241 60.1973 230.731 60.336C231.222 60.464 231.675 60.6347 232.091 60.848C232.507 61.0613 232.843 61.3493 233.099 61.712C233.355 62.0747 233.483 62.544 233.483 63.12C233.483 63.6427 233.339 64.1333 233.051 64.592C232.763 65.04 232.321 65.4027 231.723 65.68C231.137 65.9467 230.379 66.08 229.451 66.08ZM235.257 66V54.8H239.929C241.135 54.8 242.079 55.0453 242.761 55.536C243.444 56.0267 243.785 56.736 243.785 57.664C243.785 58.272 243.641 58.784 243.353 59.2C243.065 59.616 242.665 59.9307 242.153 60.144C241.652 60.3467 241.087 60.448 240.457 60.448L240.745 60.128C241.513 60.128 242.169 60.24 242.713 60.464C243.257 60.688 243.668 61.0133 243.945 61.44C244.233 61.8667 244.377 62.4 244.377 63.04C244.377 63.9787 244.036 64.7093 243.353 65.232C242.671 65.744 241.636 66 240.249 66H235.257ZM236.073 65.296H240.249C241.327 65.296 242.148 65.1147 242.713 64.752C243.279 64.3787 243.561 63.7867 243.561 62.976C243.561 62.176 243.279 61.5947 242.713 61.232C242.148 60.8587 241.327 60.672 240.249 60.672H235.977V59.968H239.897C240.868 59.968 241.62 59.7813 242.153 59.408C242.687 59.0347 242.953 58.4747 242.953 57.728C242.953 56.992 242.687 56.4373 242.153 56.064C241.62 55.6907 240.868 55.504 239.897 55.504H236.073V65.296Z" fill="#363B3B"/>
<path d="M264.46 66V54.8H265.148L273.132 64.992H272.764V54.8H273.58V66H272.908L264.908 55.808H265.276V66H264.46ZM276.491 66V54.8H280.923C282.107 54.8 283.147 55.04 284.043 55.52C284.939 56 285.632 56.6613 286.123 57.504C286.624 58.3467 286.875 59.312 286.875 60.4C286.875 61.488 286.624 62.4533 286.123 63.296C285.632 64.1387 284.939 64.8 284.043 65.28C283.147 65.76 282.107 66 280.923 66H276.491ZM277.307 65.264H280.859C281.915 65.264 282.832 65.056 283.611 64.64C284.39 64.224 284.992 63.6533 285.419 62.928C285.846 62.192 286.059 61.3493 286.059 60.4C286.059 59.4507 285.846 58.6133 285.419 57.888C284.992 57.152 284.39 56.576 283.611 56.16C282.832 55.744 281.915 55.536 280.859 55.536H277.307V65.264Z" fill="#363B3B"/>
<rect x="13.9192" y="79.0125" width="40.1867" height="37.0124" rx="5" fill="#D4233D"/>
<path d="M33.9059 103.012V92.2925L34.4179 92.8365H31.2659V91.8125H35.0579V103.012H33.9059Z" fill="white"/>
<rect x="54.106" y="79.0125" width="40.1867" height="37.0124" rx="5" fill="white"/>
<rect x="54.106" y="79.0125" width="40.1867" height="37.0124" rx="5" fill="#D4233D"/>
<path d="M70.2764 103.012V102.196L74.9324 97.6365C75.3591 97.2205 75.6791 96.8578 75.8924 96.5485C76.1057 96.2285 76.2497 95.9298 76.3244 95.6525C76.3991 95.3751 76.4364 95.1138 76.4364 94.8685C76.4364 94.2178 76.2124 93.7058 75.7644 93.3325C75.3271 92.9591 74.6764 92.7725 73.8124 92.7725C73.1511 92.7725 72.5644 92.8738 72.0524 93.0765C71.5511 93.2791 71.1191 93.5938 70.7564 94.0205L69.9404 93.3165C70.3777 92.8045 70.9377 92.4098 71.6204 92.1325C72.3031 91.8551 73.0657 91.7165 73.9084 91.7165C74.6657 91.7165 75.3217 91.8391 75.8764 92.0845C76.4311 92.3191 76.8577 92.6658 77.1564 93.1245C77.4657 93.5831 77.6204 94.1218 77.6204 94.7405C77.6204 95.1031 77.5671 95.4605 77.4604 95.8125C77.3644 96.1645 77.1831 96.5378 76.9164 96.9325C76.6604 97.3165 76.2817 97.7538 75.7804 98.2445L71.5084 102.436L71.1884 101.988H78.1324V103.012H70.2764Z" fill="white"/>
<rect x="94.2927" y="79.0125" width="40.1867" height="37.0124" fill="white"/>
<path d="M114.085 103.092C113.264 103.092 112.496 102.954 111.781 102.676C111.077 102.399 110.528 102.036 110.133 101.588L110.549 100.964C110.89 101.359 111.37 101.69 111.989 101.956C112.618 102.212 113.317 102.34 114.085 102.34C115.088 102.34 115.85 102.116 116.373 101.668C116.906 101.22 117.173 100.618 117.173 99.8605C117.173 99.1138 116.906 98.5165 116.373 98.0685C115.85 97.6098 115.029 97.3805 113.909 97.3805H113.205V96.7885L116.773 92.2285L116.885 92.5485H110.549V91.8125H117.573V92.3885L114.021 96.9485L113.669 96.6925H114.021C115.354 96.6925 116.352 96.9858 117.013 97.5725C117.674 98.1591 118.005 98.9218 118.005 99.8605C118.005 100.479 117.856 101.034 117.557 101.524C117.269 102.015 116.832 102.399 116.245 102.676C115.669 102.954 114.949 103.092 114.085 103.092Z" fill="#D4233D"/>
<rect x="134.479" y="79.0125" width="40.1867" height="37.0124" rx="5" fill="#D4233D"/>
<path d="M149.924 100.068V99.2365L155.86 91.8125H157.14L151.252 99.2365L150.628 99.0445H159.636V100.068H149.924ZM156.244 103.012V100.068L156.276 99.0445V96.4525H157.396V103.012H156.244Z" fill="white"/>
<rect x="174.666" y="79.0125" width="40.1866" height="37.0124" fill="white"/>
<rect x="174.666" y="79.0125" width="40.1866" height="37.0124" fill="white"/>
<path d="M194.65 103.092C193.839 103.092 193.077 102.954 192.362 102.676C191.658 102.399 191.109 102.036 190.714 101.588L191.13 100.964C191.471 101.359 191.951 101.69 192.57 101.956C193.189 102.212 193.877 102.34 194.634 102.34C195.669 102.34 196.447 102.106 196.97 101.636C197.493 101.167 197.754 100.559 197.754 99.8125C197.754 99.2791 197.631 98.8205 197.386 98.4365C197.141 98.0525 196.725 97.7591 196.138 97.5565C195.551 97.3431 194.751 97.2365 193.738 97.2365H191.466L192.058 91.8125H197.994V92.5485H192.394L192.794 92.1645L192.266 96.9165L191.882 96.5005H193.914C195.055 96.5005 195.962 96.6391 196.634 96.9165C197.317 97.1831 197.807 97.5618 198.106 98.0525C198.415 98.5431 198.57 99.1191 198.57 99.7805C198.57 100.399 198.426 100.959 198.138 101.46C197.85 101.962 197.413 102.362 196.826 102.66C196.25 102.948 195.525 103.092 194.65 103.092Z" fill="#1C281C"/>
<rect x="214.853" y="79.0125" width="40.1867" height="37.0124" fill="white"/>
<rect x="214.853" y="79.0125" width="40.1867" height="37.0124" fill="white"/>
<path d="M235.509 103.092C234.528 103.092 233.701 102.868 233.029 102.42C232.368 101.972 231.867 101.327 231.525 100.484C231.184 99.6418 231.013 98.6391 231.013 97.4765C231.013 96.2071 231.221 95.1511 231.637 94.3085C232.053 93.4551 232.635 92.8151 233.381 92.3885C234.128 91.9511 234.997 91.7325 235.989 91.7325C236.469 91.7325 236.928 91.7751 237.365 91.8605C237.803 91.9458 238.192 92.0951 238.533 92.3085L238.197 92.9645C237.909 92.7831 237.573 92.6551 237.189 92.5805C236.816 92.4951 236.416 92.4525 235.989 92.4525C234.731 92.4525 233.723 92.8631 232.965 93.6845C232.208 94.4951 231.829 95.7165 231.829 97.3485C231.829 97.5938 231.845 97.9085 231.877 98.2925C231.909 98.6658 231.979 99.0338 232.085 99.3965L231.797 99.3165C231.872 98.6978 232.08 98.1698 232.421 97.7325C232.763 97.2951 233.2 96.9645 233.733 96.7405C234.267 96.5058 234.853 96.3885 235.493 96.3885C236.24 96.3885 236.891 96.5271 237.445 96.8045C238.011 97.0711 238.448 97.4551 238.757 97.9565C239.077 98.4578 239.237 99.0445 239.237 99.7165C239.237 100.399 239.072 100.996 238.741 101.508C238.421 102.01 237.979 102.399 237.413 102.676C236.859 102.954 236.224 103.092 235.509 103.092ZM235.477 102.388C236.064 102.388 236.576 102.282 237.013 102.068C237.451 101.844 237.792 101.535 238.037 101.14C238.293 100.735 238.421 100.266 238.421 99.7325C238.421 98.9325 238.149 98.2925 237.605 97.8125C237.072 97.3325 236.331 97.0925 235.381 97.0925C234.773 97.0925 234.235 97.2098 233.765 97.4445C233.296 97.6791 232.928 97.9991 232.661 98.4045C232.405 98.8098 232.277 99.2631 232.277 99.7645C232.277 100.202 232.4 100.623 232.645 101.028C232.891 101.423 233.248 101.748 233.717 102.004C234.197 102.26 234.784 102.388 235.477 102.388Z" fill="#1C281C"/>
<rect x="255.039" y="79.0125" width="40.1867" height="37.0124" fill="white"/>
<rect x="255.039" y="79.0125" width="40.1867" height="37.0124" fill="white"/>
<path d="M273.348 103.012L278.276 92.1965L278.564 92.5485H271.412L271.828 92.1645V94.6925H271.028V91.8125H279.06V92.3885L274.244 103.012H273.348Z" fill="#1C281C"/>
<rect x="13.9192" y="116.025" width="40.1867" height="37.0125" fill="white"/>
<rect x="13.9192" y="116.025" width="40.1867" height="37.0125" fill="white"/>
<rect x="13.9192" y="116.025" width="40.1867" height="37.0125" fill="white"/>
<path d="M33.9978 140.105C33.1125 140.105 32.3552 139.977 31.7258 139.721C31.0965 139.465 30.6112 139.102 30.2698 138.633C29.9392 138.164 29.7738 137.604 29.7738 136.953C29.7738 136.324 29.9392 135.785 30.2698 135.337C30.6005 134.889 31.0805 134.548 31.7098 134.313C32.3392 134.068 33.1018 133.945 33.9978 133.945C34.8938 133.945 35.6565 134.068 36.2858 134.313C36.9258 134.548 37.4112 134.889 37.7418 135.337C38.0832 135.785 38.2538 136.324 38.2538 136.953C38.2538 137.604 38.0832 138.164 37.7418 138.633C37.4005 139.102 36.9098 139.465 36.2698 139.721C35.6405 139.977 34.8832 140.105 33.9978 140.105ZM33.9978 139.401C35.0752 139.401 35.9178 139.182 36.5258 138.745C37.1338 138.308 37.4378 137.71 37.4378 136.953C37.4378 136.206 37.1338 135.614 36.5258 135.177C35.9178 134.74 35.0752 134.521 33.9978 134.521C32.9205 134.521 32.0832 134.74 31.4858 135.177C30.8885 135.614 30.5898 136.206 30.5898 136.953C30.5898 137.71 30.8885 138.308 31.4858 138.745C32.0832 139.182 32.9205 139.401 33.9978 139.401ZM33.9978 134.409C33.1872 134.409 32.4938 134.302 31.9178 134.089C31.3525 133.865 30.9205 133.545 30.6218 133.129C30.3232 132.713 30.1738 132.217 30.1738 131.641C30.1738 131.044 30.3285 130.532 30.6378 130.105C30.9578 129.668 31.4058 129.332 31.9818 129.097C32.5578 128.862 33.2298 128.745 33.9978 128.745C34.7765 128.745 35.4538 128.862 36.0298 129.097C36.6058 129.332 37.0538 129.668 37.3738 130.105C37.6938 130.532 37.8538 131.044 37.8538 131.641C37.8538 132.217 37.6992 132.713 37.3898 133.129C37.0912 133.545 36.6538 133.865 36.0778 134.089C35.5018 134.302 34.8085 134.409 33.9978 134.409ZM33.9978 133.849C34.9578 133.849 35.7045 133.652 36.2378 133.257C36.7712 132.862 37.0378 132.334 37.0378 131.673C37.0378 130.98 36.7605 130.436 36.2058 130.041C35.6618 129.646 34.9258 129.449 33.9978 129.449C33.0805 129.449 32.3498 129.646 31.8058 130.041C31.2618 130.436 30.9898 130.974 30.9898 131.657C30.9898 132.329 31.2512 132.862 31.7738 133.257C32.3072 133.652 33.0485 133.849 33.9978 133.849Z" fill="#1C281C"/>
<rect x="54.106" y="116.025" width="40.1867" height="37.0125" fill="white"/>
<rect x="54.106" y="116.025" width="40.1867" height="37.0125" fill="white"/>
<rect x="54.106" y="116.025" width="40.1867" height="37.0125" fill="white"/>
<path d="M73.6428 128.745C74.6241 128.745 75.4455 128.969 76.1068 129.417C76.7788 129.865 77.2855 130.51 77.6268 131.353C77.9681 132.185 78.1388 133.188 78.1388 134.361C78.1388 135.62 77.9308 136.676 77.5148 137.529C77.0988 138.382 76.5175 139.028 75.7708 139.465C75.0241 139.892 74.1548 140.105 73.1628 140.105C72.6828 140.105 72.2241 140.062 71.7868 139.977C71.3601 139.892 70.9708 139.742 70.6188 139.529L70.9548 138.873C71.2428 139.054 71.5788 139.188 71.9628 139.273C72.3468 139.348 72.7468 139.385 73.1628 139.385C74.4215 139.385 75.4295 138.98 76.1868 138.169C76.9441 137.348 77.3228 136.121 77.3228 134.489C77.3228 134.233 77.3068 133.918 77.2748 133.545C77.2428 133.172 77.1735 132.804 77.0668 132.441L77.3548 132.521C77.2801 133.14 77.0721 133.668 76.7308 134.105C76.3895 134.532 75.9521 134.862 75.4188 135.097C74.8961 135.332 74.3095 135.449 73.6588 135.449C72.9121 135.449 72.2561 135.316 71.6908 135.049C71.1361 134.772 70.6988 134.382 70.3788 133.881C70.0695 133.38 69.9148 132.793 69.9148 132.121C69.9148 131.438 70.0748 130.846 70.3948 130.345C70.7255 129.833 71.1681 129.438 71.7228 129.161C72.2881 128.884 72.9281 128.745 73.6428 128.745ZM73.6748 129.449C73.0881 129.449 72.5761 129.561 72.1388 129.785C71.7015 129.998 71.3548 130.302 71.0988 130.697C70.8535 131.092 70.7308 131.561 70.7308 132.105C70.7308 132.905 71.0028 133.545 71.5468 134.025C72.0908 134.505 72.8321 134.745 73.7708 134.745C74.3788 134.745 74.9175 134.628 75.3868 134.393C75.8561 134.158 76.2188 133.838 76.4748 133.433C76.7415 133.028 76.8748 132.574 76.8748 132.073C76.8748 131.636 76.7521 131.22 76.5068 130.825C76.2615 130.42 75.9041 130.089 75.4348 129.833C74.9655 129.577 74.3788 129.449 73.6748 129.449Z" fill="#1C281C"/>
<rect x="94.2927" y="116.025" width="40.1867" height="37.0125" fill="white"/>
<rect x="94.2927" y="116.025" width="40.1867" height="37.0125" fill="white"/>
<rect x="94.2927" y="116.025" width="40.1867" height="37.0125" fill="white"/>
<path d="M109.68 140.025V129.177L110.048 129.561H106.944V128.825H110.496V140.025H109.68ZM116.705 140.105C115.851 140.105 115.094 139.876 114.433 139.417C113.771 138.958 113.254 138.308 112.881 137.465C112.507 136.612 112.321 135.598 112.321 134.425C112.321 133.252 112.507 132.244 112.881 131.401C113.254 130.548 113.771 129.892 114.433 129.433C115.094 128.974 115.851 128.745 116.705 128.745C117.569 128.745 118.326 128.974 118.977 129.433C119.638 129.892 120.155 130.548 120.529 131.401C120.902 132.244 121.089 133.252 121.089 134.425C121.089 135.598 120.902 136.612 120.529 137.465C120.155 138.308 119.638 138.958 118.977 139.417C118.326 139.876 117.569 140.105 116.705 140.105ZM116.705 139.353C117.419 139.353 118.043 139.161 118.577 138.777C119.11 138.382 119.526 137.817 119.825 137.081C120.123 136.345 120.273 135.46 120.273 134.425C120.273 133.38 120.123 132.494 119.825 131.769C119.526 131.033 119.11 130.473 118.577 130.089C118.043 129.694 117.419 129.497 116.705 129.497C116.001 129.497 115.377 129.694 114.833 130.089C114.299 130.473 113.883 131.033 113.585 131.769C113.286 132.494 113.137 133.38 113.137 134.425C113.137 135.46 113.286 136.345 113.585 137.081C113.883 137.817 114.299 138.382 114.833 138.777C115.377 139.161 116.001 139.353 116.705 139.353Z" fill="#1C281C"/>
<rect x="134.479" y="116.025" width="40.1867" height="37.0125" fill="white"/>
<rect x="134.479" y="116.025" width="40.1867" height="37.0125" fill="white"/>
<rect x="134.479" y="116.025" width="40.1867" height="37.0125" fill="white"/>
<path d="M152.312 140.025V129.177L152.68 129.561H149.576V128.825H153.128V140.025H152.312ZM156.953 140.025V129.177L157.321 129.561H154.217V128.825H157.769V140.025H156.953Z" fill="#1C281C"/>
<rect x="174.666" y="116.025" width="40.1866" height="37.0125" rx="5" fill="#D4233D"/>
<path d="M190.606 140.025V129.305L191.118 129.849H187.966V128.825H191.758V140.025H190.606ZM193.227 140.025V139.209L197.883 134.649C198.31 134.233 198.63 133.87 198.843 133.561C199.056 133.241 199.2 132.942 199.275 132.665C199.35 132.388 199.387 132.126 199.387 131.881C199.387 131.23 199.163 130.718 198.715 130.345C198.278 129.972 197.627 129.785 196.763 129.785C196.102 129.785 195.515 129.886 195.003 130.089C194.502 130.292 194.07 130.606 193.707 131.033L192.891 130.329C193.328 129.817 193.888 129.422 194.571 129.145C195.254 128.868 196.016 128.729 196.859 128.729C197.616 128.729 198.272 128.852 198.827 129.097C199.382 129.332 199.808 129.678 200.107 130.137C200.416 130.596 200.571 131.134 200.571 131.753C200.571 132.116 200.518 132.473 200.411 132.825C200.315 133.177 200.134 133.55 199.867 133.945C199.611 134.329 199.232 134.766 198.731 135.257L194.459 139.449L194.139 139.001H201.083V140.025H193.227Z" fill="white"/>
<rect x="214.853" y="116.025" width="40.1867" height="37.0125" fill="white"/>
<rect x="214.853" y="116.025" width="40.1867" height="37.0125" fill="white"/>
<rect x="214.853" y="116.025" width="40.1867" height="37.0125" fill="white"/>
<path d="M231.045 140.025V129.177L231.413 129.561H228.309V128.825H231.861V140.025H231.045ZM236.965 140.105C236.144 140.105 235.376 139.966 234.661 139.689C233.957 139.412 233.408 139.049 233.013 138.601L233.429 137.977C233.771 138.372 234.251 138.702 234.869 138.969C235.499 139.225 236.197 139.353 236.965 139.353C237.968 139.353 238.731 139.129 239.253 138.681C239.787 138.233 240.053 137.63 240.053 136.873C240.053 136.126 239.787 135.529 239.253 135.081C238.731 134.622 237.909 134.393 236.789 134.393H236.085V133.801L239.653 129.241L239.765 129.561H233.429V128.825H240.453V129.401L236.901 133.961L236.549 133.705H236.901C238.235 133.705 239.232 133.998 239.893 134.585C240.555 135.172 240.885 135.934 240.885 136.873C240.885 137.492 240.736 138.046 240.437 138.537C240.149 139.028 239.712 139.412 239.125 139.689C238.549 139.966 237.829 140.105 236.965 140.105Z" fill="#1C281C"/>
<rect x="255.039" y="116.025" width="40.1867" height="37.0125" fill="white"/>
<rect x="255.039" y="116.025" width="40.1867" height="37.0125" fill="white"/>
<rect x="255.039" y="116.025" width="40.1867" height="37.0125" fill="white"/>
<path d="M270.458 140.025V129.177L270.826 129.561H267.722V128.825H271.274V140.025H270.458ZM272.907 136.921V136.329L278.987 128.825H279.899L273.835 136.329L273.387 136.201H282.443V136.921H272.907ZM279.291 140.025V136.921L279.307 136.201V133.465H280.091V140.025H279.291Z" fill="#1C281C"/>
<rect x="13.9192" y="153.037" width="40.1867" height="37.0124" rx="5" fill="#D4233D"/>
<path d="M29.8746 177.037V166.317L30.3866 166.861H27.2346V165.837H31.0266V177.037H29.8746ZM36.2399 177.133C35.4399 177.133 34.6772 177.005 33.9519 176.749C33.2266 176.483 32.6506 176.131 32.2239 175.693L32.7839 174.781C33.1359 175.155 33.6159 175.464 34.2239 175.709C34.8426 175.955 35.5092 176.077 36.2239 176.077C37.1732 176.077 37.8932 175.869 38.3839 175.453C38.8852 175.027 39.1359 174.472 39.1359 173.789C39.1359 173.309 39.0186 172.899 38.7839 172.557C38.5599 172.205 38.1759 171.933 37.6319 171.741C37.0879 171.549 36.3412 171.453 35.3919 171.453H33.0079L33.5839 165.837H39.7119V166.861H34.0479L34.6399 166.301L34.1439 171.005L33.5519 170.429H35.6479C36.7786 170.429 37.6852 170.568 38.3679 170.845C39.0506 171.123 39.5412 171.512 39.8399 172.013C40.1492 172.504 40.3039 173.08 40.3039 173.741C40.3039 174.371 40.1546 174.947 39.8559 175.469C39.5572 175.981 39.1092 176.387 38.5119 176.685C37.9146 176.984 37.1572 177.133 36.2399 177.133Z" fill="white"/>
<rect x="54.106" y="153.037" width="40.1867" height="37.0124" fill="white"/>
<rect x="54.106" y="153.037" width="40.1867" height="37.0124" fill="white"/>
<rect x="54.106" y="153.037" width="40.1867" height="37.0124" fill="white"/>
<rect x="54.106" y="153.037" width="40.1867" height="37.0124" fill="white"/>
<path d="M69.9465 177.037V166.189L70.3145 166.573H67.2105V165.837H70.7625V177.037H69.9465ZM77.0831 177.117C76.1018 177.117 75.2751 176.893 74.6031 176.445C73.9418 175.997 73.4404 175.352 73.0991 174.509C72.7578 173.667 72.5871 172.664 72.5871 171.501C72.5871 170.232 72.7951 169.176 73.2111 168.333C73.6271 167.48 74.2084 166.84 74.9551 166.413C75.7018 165.976 76.5711 165.757 77.5631 165.757C78.0431 165.757 78.5018 165.8 78.9391 165.885C79.3764 165.971 79.7658 166.12 80.1071 166.333L79.7711 166.989C79.4831 166.808 79.1471 166.68 78.7631 166.605C78.3898 166.52 77.9898 166.477 77.5631 166.477C76.3044 166.477 75.2964 166.888 74.5391 167.709C73.7818 168.52 73.4031 169.741 73.4031 171.373C73.4031 171.619 73.4191 171.933 73.4511 172.317C73.4831 172.691 73.5524 173.059 73.6591 173.421L73.3711 173.341C73.4458 172.723 73.6538 172.195 73.9951 171.757C74.3364 171.32 74.7738 170.989 75.3071 170.765C75.8404 170.531 76.4271 170.413 77.0671 170.413C77.8138 170.413 78.4644 170.552 79.0191 170.829C79.5844 171.096 80.0218 171.48 80.3311 171.981C80.6511 172.483 80.8111 173.069 80.8111 173.741C80.8111 174.424 80.6458 175.021 80.3151 175.533C79.9951 176.035 79.5524 176.424 78.9871 176.701C78.4324 176.979 77.7978 177.117 77.0831 177.117ZM77.0511 176.413C77.6378 176.413 78.1498 176.307 78.5871 176.093C79.0244 175.869 79.3658 175.56 79.6111 175.165C79.8671 174.76 79.9951 174.291 79.9951 173.757C79.9951 172.957 79.7231 172.317 79.1791 171.837C78.6458 171.357 77.9044 171.117 76.9551 171.117C76.3471 171.117 75.8084 171.235 75.3391 171.469C74.8698 171.704 74.5018 172.024 74.2351 172.429C73.9791 172.835 73.8511 173.288 73.8511 173.789C73.8511 174.227 73.9738 174.648 74.2191 175.053C74.4644 175.448 74.8218 175.773 75.2911 176.029C75.7711 176.285 76.3578 176.413 77.0511 176.413Z" fill="#1C281C"/>
<rect x="94.2927" y="153.037" width="40.1867" height="37.0124" rx="5" fill="#333333"/>
<path d="M110.069 177.037V166.317L110.581 166.861H107.429V165.837H111.221V177.037H110.069ZM114.866 177.037L119.698 166.349L120.05 166.861H113.122L113.714 166.301V168.957H112.578V165.837H120.802V166.653L116.114 177.037H114.866Z" fill="white"/>
<rect x="134.479" y="153.037" width="40.1867" height="37.0124" fill="white"/>
<path d="M150.078 177.037V166.189L150.446 166.573H147.342V165.837H150.894V177.037H150.078ZM156.878 177.117C155.993 177.117 155.236 176.989 154.606 176.733C153.977 176.477 153.492 176.115 153.15 175.645C152.82 175.176 152.654 174.616 152.654 173.965C152.654 173.336 152.82 172.797 153.15 172.349C153.481 171.901 153.961 171.56 154.59 171.325C155.22 171.08 155.982 170.957 156.878 170.957C157.774 170.957 158.537 171.08 159.166 171.325C159.806 171.56 160.292 171.901 160.622 172.349C160.964 172.797 161.134 173.336 161.134 173.965C161.134 174.616 160.964 175.176 160.622 175.645C160.281 176.115 159.79 176.477 159.15 176.733C158.521 176.989 157.764 177.117 156.878 177.117ZM156.878 176.413C157.956 176.413 158.798 176.195 159.406 175.757C160.014 175.32 160.318 174.723 160.318 173.965C160.318 173.219 160.014 172.627 159.406 172.189C158.798 171.752 157.956 171.533 156.878 171.533C155.801 171.533 154.964 171.752 154.366 172.189C153.769 172.627 153.47 173.219 153.47 173.965C153.47 174.723 153.769 175.32 154.366 175.757C154.964 176.195 155.801 176.413 156.878 176.413ZM156.878 171.421C156.068 171.421 155.374 171.315 154.798 171.101C154.233 170.877 153.801 170.557 153.502 170.141C153.204 169.725 153.054 169.229 153.054 168.653C153.054 168.056 153.209 167.544 153.518 167.117C153.838 166.68 154.286 166.344 154.862 166.109C155.438 165.875 156.11 165.757 156.878 165.757C157.657 165.757 158.334 165.875 158.91 166.109C159.486 166.344 159.934 166.68 160.254 167.117C160.574 167.544 160.734 168.056 160.734 168.653C160.734 169.229 160.58 169.725 160.27 170.141C159.972 170.557 159.534 170.877 158.958 171.101C158.382 171.315 157.689 171.421 156.878 171.421ZM156.878 170.861C157.838 170.861 158.585 170.664 159.118 170.269C159.652 169.875 159.918 169.347 159.918 168.685C159.918 167.992 159.641 167.448 159.086 167.053C158.542 166.659 157.806 166.461 156.878 166.461C155.961 166.461 155.23 166.659 154.686 167.053C154.142 167.448 153.87 167.987 153.87 168.669C153.87 169.341 154.132 169.875 154.654 170.269C155.188 170.664 155.929 170.861 156.878 170.861Z" fill="#1C281C"/>
<rect x="174.666" y="153.037" width="40.1866" height="37.0124" fill="white"/>
<path d="M190.506 177.037V166.189L190.874 166.573H187.77V165.837H191.322V177.037H190.506ZM196.523 165.757C197.504 165.757 198.326 165.981 198.987 166.429C199.659 166.877 200.166 167.523 200.507 168.365C200.848 169.197 201.019 170.2 201.019 171.373C201.019 172.632 200.811 173.688 200.395 174.541C199.979 175.395 199.398 176.04 198.651 176.477C197.904 176.904 197.035 177.117 196.043 177.117C195.563 177.117 195.104 177.075 194.667 176.989C194.24 176.904 193.851 176.755 193.499 176.541L193.835 175.885C194.123 176.067 194.459 176.2 194.843 176.285C195.227 176.36 195.627 176.397 196.043 176.397C197.302 176.397 198.31 175.992 199.067 175.181C199.824 174.36 200.203 173.133 200.203 171.501C200.203 171.245 200.187 170.931 200.155 170.557C200.123 170.184 200.054 169.816 199.947 169.453L200.235 169.533C200.16 170.152 199.952 170.68 199.611 171.117C199.27 171.544 198.832 171.875 198.299 172.109C197.776 172.344 197.19 172.461 196.539 172.461C195.792 172.461 195.136 172.328 194.571 172.061C194.016 171.784 193.579 171.395 193.259 170.893C192.95 170.392 192.795 169.805 192.795 169.133C192.795 168.451 192.955 167.859 193.275 167.357C193.606 166.845 194.048 166.451 194.603 166.173C195.168 165.896 195.808 165.757 196.523 165.757ZM196.555 166.461C195.968 166.461 195.456 166.573 195.019 166.797C194.582 167.011 194.235 167.315 193.979 167.709C193.734 168.104 193.611 168.573 193.611 169.117C193.611 169.917 193.883 170.557 194.427 171.037C194.971 171.517 195.712 171.757 196.651 171.757C197.259 171.757 197.798 171.64 198.267 171.405C198.736 171.171 199.099 170.851 199.355 170.445C199.622 170.04 199.755 169.587 199.755 169.085C199.755 168.648 199.632 168.232 199.387 167.837C199.142 167.432 198.784 167.101 198.315 166.845C197.846 166.589 197.259 166.461 196.555 166.461Z" fill="#1C281C"/>
<rect x="214.853" y="153.037" width="40.1867" height="37.0124" fill="white"/>
<path d="M226.352 177.037V176.461L231.088 171.757C231.536 171.309 231.872 170.92 232.096 170.589C232.32 170.248 232.469 169.933 232.544 169.645C232.629 169.357 232.672 169.075 232.672 168.797C232.672 168.093 232.432 167.539 231.952 167.133C231.472 166.717 230.768 166.509 229.84 166.509C229.136 166.509 228.517 166.616 227.984 166.829C227.461 167.043 227.008 167.368 226.624 167.805L226.048 167.293C226.475 166.803 227.013 166.424 227.664 166.157C228.325 165.891 229.072 165.757 229.904 165.757C230.64 165.757 231.275 165.88 231.808 166.125C232.352 166.36 232.768 166.701 233.056 167.149C233.355 167.587 233.504 168.109 233.504 168.717C233.504 169.08 233.451 169.437 233.344 169.789C233.248 170.131 233.067 170.493 232.8 170.877C232.544 171.261 232.171 171.699 231.68 172.189L227.232 176.621L226.96 176.301H234.048V177.037H226.352ZM238.929 177.117C238.075 177.117 237.318 176.888 236.657 176.429C235.995 175.971 235.478 175.32 235.105 174.477C234.731 173.624 234.545 172.611 234.545 171.437C234.545 170.264 234.731 169.256 235.105 168.413C235.478 167.56 235.995 166.904 236.657 166.445C237.318 165.987 238.075 165.757 238.929 165.757C239.793 165.757 240.55 165.987 241.201 166.445C241.862 166.904 242.379 167.56 242.753 168.413C243.126 169.256 243.313 170.264 243.313 171.437C243.313 172.611 243.126 173.624 242.753 174.477C242.379 175.32 241.862 175.971 241.201 176.429C240.55 176.888 239.793 177.117 238.929 177.117ZM238.929 176.365C239.643 176.365 240.267 176.173 240.801 175.789C241.334 175.395 241.75 174.829 242.049 174.093C242.347 173.357 242.497 172.472 242.497 171.437C242.497 170.392 242.347 169.507 242.049 168.781C241.75 168.045 241.334 167.485 240.801 167.101C240.267 166.707 239.643 166.509 238.929 166.509C238.225 166.509 237.601 166.707 237.057 167.101C236.523 167.485 236.107 168.045 235.809 168.781C235.51 169.507 235.361 170.392 235.361 171.437C235.361 172.472 235.51 173.357 235.809 174.093C236.107 174.829 236.523 175.395 237.057 175.789C237.601 176.173 238.225 176.365 238.929 176.365Z" fill="#1C281C"/>
<rect x="255.039" y="153.037" width="40.1867" height="37.0124" fill="white"/>
<path d="M268.961 177.037V176.461L273.697 171.757C274.145 171.309 274.481 170.92 274.705 170.589C274.929 170.248 275.078 169.933 275.153 169.645C275.238 169.357 275.281 169.075 275.281 168.797C275.281 168.093 275.041 167.539 274.561 167.133C274.081 166.717 273.377 166.509 272.449 166.509C271.745 166.509 271.126 166.616 270.593 166.829C270.07 167.043 269.617 167.368 269.233 167.805L268.657 167.293C269.083 166.803 269.622 166.424 270.273 166.157C270.934 165.891 271.681 165.757 272.513 165.757C273.249 165.757 273.883 165.88 274.417 166.125C274.961 166.36 275.377 166.701 275.665 167.149C275.963 167.587 276.113 168.109 276.113 168.717C276.113 169.08 276.059 169.437 275.953 169.789C275.857 170.131 275.675 170.493 275.409 170.877C275.153 171.261 274.779 171.699 274.289 172.189L269.841 176.621L269.569 176.301H276.657V177.037H268.961ZM279.2 177.037V166.189L279.568 166.573H276.464V165.837H280.016V177.037H279.2Z" fill="#1C281C"/>
<rect x="13.9192" y="190.05" width="40.1867" height="37.0125" fill="white"/>
<path d="M26.1529 214.05V213.474L30.8889 208.77C31.3369 208.322 31.6729 207.932 31.8969 207.602C32.1209 207.26 32.2702 206.946 32.3449 206.658C32.4302 206.37 32.4729 206.087 32.4729 205.81C32.4729 205.106 32.2329 204.551 31.7529 204.146C31.2729 203.73 30.5689 203.522 29.6409 203.522C28.9369 203.522 28.3182 203.628 27.7849 203.842C27.2622 204.055 26.8089 204.38 26.4249 204.818L25.8489 204.306C26.2756 203.815 26.8142 203.436 27.4649 203.17C28.1262 202.903 28.8729 202.77 29.7049 202.77C30.4409 202.77 31.0756 202.892 31.6089 203.138C32.1529 203.372 32.5689 203.714 32.8569 204.162C33.1556 204.599 33.3049 205.122 33.3049 205.73C33.3049 206.092 33.2516 206.45 33.1449 206.802C33.0489 207.143 32.8676 207.506 32.6009 207.89C32.3449 208.274 31.9716 208.711 31.4809 209.202L27.0329 213.634L26.7609 213.314H33.8489V214.05H26.1529ZM34.1685 214.05V213.474L38.9045 208.77C39.3525 208.322 39.6885 207.932 39.9125 207.602C40.1365 207.26 40.2859 206.946 40.3605 206.658C40.4459 206.37 40.4885 206.087 40.4885 205.81C40.4885 205.106 40.2485 204.551 39.7685 204.146C39.2885 203.73 38.5845 203.522 37.6565 203.522C36.9525 203.522 36.3339 203.628 35.8005 203.842C35.2779 204.055 34.8245 204.38 34.4405 204.818L33.8645 204.306C34.2912 203.815 34.8299 203.436 35.4805 203.17C36.1419 202.903 36.8885 202.77 37.7205 202.77C38.4565 202.77 39.0912 202.892 39.6245 203.138C40.1685 203.372 40.5845 203.714 40.8725 204.162C41.1712 204.599 41.3205 205.122 41.3205 205.73C41.3205 206.092 41.2672 206.45 41.1605 206.802C41.0645 207.143 40.8832 207.506 40.6165 207.89C40.3605 208.274 39.9872 208.711 39.4965 209.202L35.0485 213.634L34.7765 213.314H41.8645V214.05H34.1685Z" fill="#1C281C"/>
<rect x="54.106" y="190.05" width="40.1867" height="37.0125" fill="white"/>
<path d="M66.3865 214.05V213.474L71.1225 208.77C71.5705 208.322 71.9065 207.932 72.1305 207.602C72.3545 207.26 72.5039 206.946 72.5785 206.658C72.6639 206.37 72.7065 206.087 72.7065 205.81C72.7065 205.106 72.4665 204.551 71.9865 204.146C71.5065 203.73 70.8025 203.522 69.8745 203.522C69.1705 203.522 68.5519 203.628 68.0185 203.842C67.4959 204.055 67.0425 204.38 66.6585 204.818L66.0825 204.306C66.5092 203.815 67.0479 203.436 67.6985 203.17C68.3599 202.903 69.1065 202.77 69.9385 202.77C70.6745 202.77 71.3092 202.892 71.8425 203.138C72.3865 203.372 72.8025 203.714 73.0905 204.162C73.3892 204.599 73.5385 205.122 73.5385 205.73C73.5385 206.092 73.4852 206.45 73.3785 206.802C73.2825 207.143 73.1012 207.506 72.8345 207.89C72.5785 208.274 72.2052 208.711 71.7145 209.202L67.2665 213.634L66.9945 213.314H74.0825V214.05H66.3865ZM77.9062 214.13C77.0848 214.13 76.3168 213.991 75.6022 213.714C74.8982 213.436 74.3488 213.074 73.9542 212.626L74.3702 212.002C74.7115 212.396 75.1915 212.727 75.8102 212.994C76.4395 213.25 77.1382 213.378 77.9062 213.378C78.9088 213.378 79.6715 213.154 80.1942 212.706C80.7275 212.258 80.9942 211.655 80.9942 210.898C80.9942 210.151 80.7275 209.554 80.1942 209.106C79.6715 208.647 78.8502 208.418 77.7302 208.418H77.0262V207.826L80.5942 203.266L80.7062 203.586H74.3702V202.85H81.3942V203.426L77.8422 207.986L77.4902 207.73H77.8422C79.1755 207.73 80.1728 208.023 80.8342 208.61C81.4955 209.196 81.8262 209.959 81.8262 210.898C81.8262 211.516 81.6768 212.071 81.3782 212.562C81.0902 213.052 80.6528 213.436 80.0662 213.714C79.4902 213.991 78.7702 214.13 77.9062 214.13Z" fill="#1C281C"/>
<rect x="94.2927" y="190.05" width="40.1867" height="37.0125" fill="white"/>
<path d="M106.011 214.05V213.474L110.747 208.77C111.195 208.322 111.531 207.932 111.755 207.602C111.979 207.26 112.128 206.946 112.203 206.658C112.288 206.37 112.331 206.087 112.331 205.81C112.331 205.106 112.091 204.551 111.611 204.146C111.131 203.73 110.427 203.522 109.499 203.522C108.795 203.522 108.176 203.628 107.643 203.842C107.12 204.055 106.667 204.38 106.283 204.818L105.707 204.306C106.133 203.815 106.672 203.436 107.323 203.17C107.984 202.903 108.731 202.77 109.563 202.77C110.299 202.77 110.933 202.892 111.467 203.138C112.011 203.372 112.427 203.714 112.715 204.162C113.013 204.599 113.163 205.122 113.163 205.73C113.163 206.092 113.109 206.45 113.003 206.802C112.907 207.143 112.725 207.506 112.459 207.89C112.203 208.274 111.829 208.711 111.339 209.202L106.891 213.634L106.619 213.314H113.707V214.05H106.011ZM113.637 210.946V210.354L119.717 202.85H120.629L114.565 210.354L114.117 210.226H123.173V210.946H113.637ZM120.021 214.05V210.946L120.037 210.226V207.49H120.821V214.05H120.021Z" fill="#1C281C"/>
<rect x="134.479" y="190.05" width="40.1867" height="37.0125" fill="white"/>
<path d="M146.76 214.05V213.474L151.496 208.77C151.944 208.322 152.28 207.932 152.504 207.602C152.728 207.26 152.877 206.946 152.952 206.658C153.037 206.37 153.08 206.087 153.08 205.81C153.08 205.106 152.84 204.551 152.36 204.146C151.88 203.73 151.176 203.522 150.248 203.522C149.544 203.522 148.925 203.628 148.392 203.842C147.869 204.055 147.416 204.38 147.032 204.818L146.456 204.306C146.883 203.815 147.421 203.436 148.072 203.17C148.733 202.903 149.48 202.77 150.312 202.77C151.048 202.77 151.683 202.892 152.216 203.138C152.76 203.372 153.176 203.714 153.464 204.162C153.763 204.599 153.912 205.122 153.912 205.73C153.912 206.092 153.859 206.45 153.752 206.802C153.656 207.143 153.475 207.506 153.208 207.89C152.952 208.274 152.579 208.711 152.088 209.202L147.64 213.634L147.368 213.314H154.456V214.05H146.76ZM158.472 214.13C157.661 214.13 156.898 213.991 156.184 213.714C155.48 213.436 154.93 213.074 154.536 212.626L154.952 212.002C155.293 212.396 155.773 212.727 156.392 212.994C157.01 213.25 157.698 213.378 158.456 213.378C159.49 213.378 160.269 213.143 160.792 212.674C161.314 212.204 161.576 211.596 161.576 210.85C161.576 210.316 161.453 209.858 161.208 209.474C160.962 209.09 160.546 208.796 159.96 208.594C159.373 208.38 158.573 208.274 157.56 208.274H155.288L155.88 202.85H161.816V203.586H156.216L156.616 203.202L156.088 207.954L155.704 207.538H157.736C158.877 207.538 159.784 207.676 160.456 207.954C161.138 208.22 161.629 208.599 161.928 209.09C162.237 209.58 162.392 210.156 162.392 210.818C162.392 211.436 162.248 211.996 161.96 212.498C161.672 212.999 161.234 213.399 160.648 213.698C160.072 213.986 159.346 214.13 158.472 214.13Z" fill="#1C281C"/>
<rect x="174.666" y="190.05" width="40.1866" height="37.0125" fill="white"/>
<path d="M186.618 214.05V213.474L191.354 208.77C191.802 208.322 192.138 207.932 192.362 207.602C192.586 207.26 192.736 206.946 192.81 206.658C192.896 206.37 192.938 206.087 192.938 205.81C192.938 205.106 192.698 204.551 192.218 204.146C191.738 203.73 191.034 203.522 190.106 203.522C189.402 203.522 188.784 203.628 188.25 203.842C187.728 204.055 187.274 204.38 186.89 204.818L186.314 204.306C186.741 203.815 187.28 203.436 187.93 203.17C188.592 202.903 189.338 202.77 190.17 202.77C190.906 202.77 191.541 202.892 192.074 203.138C192.618 203.372 193.034 203.714 193.322 204.162C193.621 204.599 193.77 205.122 193.77 205.73C193.77 206.092 193.717 206.45 193.61 206.802C193.514 207.143 193.333 207.506 193.066 207.89C192.81 208.274 192.437 208.711 191.946 209.202L187.498 213.634L187.226 213.314H194.314V214.05H186.618ZM199.307 214.13C198.326 214.13 197.499 213.906 196.827 213.458C196.166 213.01 195.664 212.364 195.323 211.522C194.982 210.679 194.811 209.676 194.811 208.514C194.811 207.244 195.019 206.188 195.435 205.346C195.851 204.492 196.432 203.852 197.179 203.426C197.926 202.988 198.795 202.77 199.787 202.77C200.267 202.77 200.726 202.812 201.163 202.898C201.6 202.983 201.99 203.132 202.331 203.346L201.995 204.002C201.707 203.82 201.371 203.692 200.987 203.618C200.614 203.532 200.214 203.49 199.787 203.49C198.528 203.49 197.52 203.9 196.763 204.722C196.006 205.532 195.627 206.754 195.627 208.386C195.627 208.631 195.643 208.946 195.675 209.33C195.707 209.703 195.776 210.071 195.883 210.434L195.595 210.354C195.67 209.735 195.878 209.207 196.219 208.77C196.56 208.332 196.998 208.002 197.531 207.778C198.064 207.543 198.651 207.426 199.291 207.426C200.038 207.426 200.688 207.564 201.243 207.842C201.808 208.108 202.246 208.492 202.555 208.994C202.875 209.495 203.035 210.082 203.035 210.754C203.035 211.436 202.87 212.034 202.539 212.546C202.219 213.047 201.776 213.436 201.211 213.714C200.656 213.991 200.022 214.13 199.307 214.13ZM199.275 213.426C199.862 213.426 200.374 213.319 200.811 213.106C201.248 212.882 201.59 212.572 201.835 212.178C202.091 211.772 202.219 211.303 202.219 210.77C202.219 209.97 201.947 209.33 201.403 208.85C200.87 208.37 200.128 208.13 199.179 208.13C198.571 208.13 198.032 208.247 197.563 208.482C197.094 208.716 196.726 209.036 196.459 209.442C196.203 209.847 196.075 210.3 196.075 210.802C196.075 211.239 196.198 211.66 196.443 212.066C196.688 212.46 197.046 212.786 197.515 213.042C197.995 213.298 198.582 213.426 199.275 213.426Z" fill="#1C281C"/>
<rect x="214.853" y="190.05" width="40.1867" height="37.0125" fill="white"/>
<path d="M226.969 214.05V213.474L231.705 208.77C232.153 208.322 232.489 207.932 232.713 207.602C232.937 207.26 233.086 206.946 233.161 206.658C233.246 206.37 233.289 206.087 233.289 205.81C233.289 205.106 233.049 204.551 232.569 204.146C232.089 203.73 231.385 203.522 230.457 203.522C229.753 203.522 229.134 203.628 228.601 203.842C228.078 204.055 227.625 204.38 227.241 204.818L226.665 204.306C227.092 203.815 227.63 203.436 228.281 203.17C228.942 202.903 229.689 202.77 230.521 202.77C231.257 202.77 231.892 202.892 232.425 203.138C232.969 203.372 233.385 203.714 233.673 204.162C233.972 204.599 234.121 205.122 234.121 205.73C234.121 206.092 234.068 206.45 233.961 206.802C233.865 207.143 233.684 207.506 233.417 207.89C233.161 208.274 232.788 208.711 232.297 209.202L227.849 213.634L227.577 213.314H234.665V214.05H226.969ZM237.146 214.05L242.074 203.234L242.362 203.586H235.21L235.626 203.202V205.73H234.826V202.85H242.858V203.426L238.042 214.05H237.146Z" fill="#1C281C"/>
<rect x="255.039" y="190.05" width="40.1867" height="37.0125" fill="white"/>
<path d="M266.726 214.05V213.474L271.462 208.77C271.91 208.322 272.246 207.932 272.47 207.602C272.694 207.26 272.844 206.946 272.918 206.658C273.004 206.37 273.046 206.087 273.046 205.81C273.046 205.106 272.806 204.551 272.326 204.146C271.846 203.73 271.142 203.522 270.214 203.522C269.51 203.522 268.892 203.628 268.358 203.842C267.836 204.055 267.382 204.38 266.998 204.818L266.422 204.306C266.849 203.815 267.388 203.436 268.038 203.17C268.7 202.903 269.446 202.77 270.278 202.77C271.014 202.77 271.649 202.892 272.182 203.138C272.726 203.372 273.142 203.714 273.43 204.162C273.729 204.599 273.878 205.122 273.878 205.73C273.878 206.092 273.825 206.45 273.718 206.802C273.622 207.143 273.441 207.506 273.174 207.89C272.918 208.274 272.545 208.711 272.054 209.202L267.606 213.634L267.334 213.314H274.422V214.05H266.726ZM279.126 214.13C278.24 214.13 277.483 214.002 276.854 213.746C276.224 213.49 275.739 213.127 275.398 212.658C275.067 212.188 274.902 211.628 274.902 210.978C274.902 210.348 275.067 209.81 275.398 209.362C275.728 208.914 276.208 208.572 276.838 208.338C277.467 208.092 278.23 207.97 279.126 207.97C280.022 207.97 280.784 208.092 281.414 208.338C282.054 208.572 282.539 208.914 282.87 209.362C283.211 209.81 283.382 210.348 283.382 210.978C283.382 211.628 283.211 212.188 282.87 212.658C282.528 213.127 282.038 213.49 281.398 213.746C280.768 214.002 280.011 214.13 279.126 214.13ZM279.126 213.426C280.203 213.426 281.046 213.207 281.654 212.77C282.262 212.332 282.566 211.735 282.566 210.978C282.566 210.231 282.262 209.639 281.654 209.202C281.046 208.764 280.203 208.546 279.126 208.546C278.048 208.546 277.211 208.764 276.614 209.202C276.016 209.639 275.718 210.231 275.718 210.978C275.718 211.735 276.016 212.332 276.614 212.77C277.211 213.207 278.048 213.426 279.126 213.426ZM279.126 208.434C278.315 208.434 277.622 208.327 277.046 208.114C276.48 207.89 276.048 207.57 275.75 207.154C275.451 206.738 275.302 206.242 275.302 205.666C275.302 205.068 275.456 204.556 275.766 204.13C276.086 203.692 276.534 203.356 277.11 203.122C277.686 202.887 278.358 202.77 279.126 202.77C279.904 202.77 280.582 202.887 281.158 203.122C281.734 203.356 282.182 203.692 282.502 204.13C282.822 204.556 282.982 205.068 282.982 205.666C282.982 206.242 282.827 206.738 282.518 207.154C282.219 207.57 281.782 207.89 281.206 208.114C280.63 208.327 279.936 208.434 279.126 208.434ZM279.126 207.874C280.086 207.874 280.832 207.676 281.366 207.282C281.899 206.887 282.166 206.359 282.166 205.698C282.166 205.004 281.888 204.46 281.334 204.066C280.79 203.671 280.054 203.474 279.126 203.474C278.208 203.474 277.478 203.671 276.934 204.066C276.39 204.46 276.118 204.999 276.118 205.682C276.118 206.354 276.379 206.887 276.902 207.282C277.435 207.676 278.176 207.874 279.126 207.874Z" fill="#D4233D"/>
<rect x="13.9192" y="227.062" width="40.1867" height="37.0125" rx="5" fill="#D4233D"/>
<path d="M25.7146 251.062V250.246L30.3706 245.686C30.7973 245.27 31.1173 244.908 31.3306 244.598C31.544 244.278 31.688 243.98 31.7626 243.702C31.8373 243.425 31.8746 243.164 31.8746 242.918C31.8746 242.268 31.6506 241.756 31.2026 241.382C30.7653 241.009 30.1146 240.822 29.2506 240.822C28.5893 240.822 28.0026 240.924 27.4906 241.126C26.9893 241.329 26.5573 241.644 26.1946 242.07L25.3786 241.366C25.816 240.854 26.376 240.46 27.0586 240.182C27.7413 239.905 28.504 239.766 29.3466 239.766C30.104 239.766 30.76 239.889 31.3146 240.134C31.8693 240.369 32.296 240.716 32.5946 241.174C32.904 241.633 33.0586 242.172 33.0586 242.79C33.0586 243.153 33.0053 243.51 32.8986 243.862C32.8026 244.214 32.6213 244.588 32.3546 244.982C32.0986 245.366 31.72 245.804 31.2186 246.294L26.9466 250.486L26.6266 250.038H33.5706V251.062H25.7146ZM37.5044 239.766C38.4964 239.766 39.3337 239.99 40.0164 240.438C40.6991 240.876 41.2164 241.51 41.5684 242.342C41.9204 243.174 42.0964 244.182 42.0964 245.366C42.0964 246.625 41.8777 247.686 41.4404 248.55C41.0137 249.414 40.4164 250.065 39.6484 250.502C38.8804 250.94 37.9897 251.158 36.9764 251.158C36.4751 251.158 35.9951 251.11 35.5364 251.014C35.0884 250.918 34.6831 250.764 34.3204 250.55L34.7844 249.622C35.0724 249.814 35.4031 249.953 35.7764 250.038C36.1604 250.113 36.5551 250.15 36.9604 250.15C38.1657 250.15 39.1257 249.766 39.8404 248.998C40.5657 248.23 40.9284 247.084 40.9284 245.558C40.9284 245.313 40.9124 245.02 40.8804 244.678C40.8591 244.337 40.8004 243.996 40.7044 243.654L41.1044 243.958C40.9977 244.513 40.7684 244.988 40.4164 245.382C40.0751 245.766 39.6484 246.06 39.1364 246.262C38.6351 246.465 38.0751 246.566 37.4564 246.566C36.7204 246.566 36.0644 246.428 35.4884 246.15C34.9231 245.873 34.4804 245.484 34.1604 244.982C33.8404 244.481 33.6804 243.889 33.6804 243.206C33.6804 242.502 33.8457 241.894 34.1764 241.382C34.5071 240.87 34.9604 240.476 35.5364 240.198C36.1231 239.91 36.7791 239.766 37.5044 239.766ZM37.5524 240.742C37.0191 240.742 36.5444 240.844 36.1284 241.046C35.7231 241.238 35.4031 241.516 35.1684 241.878C34.9337 242.241 34.8164 242.673 34.8164 243.174C34.8164 243.91 35.0671 244.497 35.5684 244.934C36.0804 245.372 36.7684 245.59 37.6324 245.59C38.2084 245.59 38.7097 245.484 39.1364 245.27C39.5737 245.057 39.9097 244.764 40.1444 244.39C40.3897 244.017 40.5124 243.601 40.5124 243.142C40.5124 242.726 40.4004 242.337 40.1764 241.974C39.9524 241.612 39.6217 241.318 39.1844 241.094C38.7471 240.86 38.2031 240.742 37.5524 240.742Z" fill="white"/>
<rect x="54.106" y="227.062" width="40.1867" height="37.0125" rx="5" fill="#D4233D"/>
<path d="M69.0628 251.158C68.2521 251.158 67.4841 251.03 66.7588 250.774C66.0441 250.508 65.4681 250.156 65.0308 249.718L65.5908 248.806C65.9535 249.18 66.4388 249.489 67.0468 249.734C67.6655 249.98 68.3375 250.102 69.0628 250.102C69.9908 250.102 70.7001 249.9 71.1908 249.494C71.6921 249.089 71.9428 248.545 71.9428 247.862C71.9428 247.18 71.6975 246.636 71.2068 246.23C70.7268 245.825 69.9641 245.622 68.9188 245.622H68.1188V244.774L71.5748 240.438L71.7348 240.886H65.4948V239.862H72.6948V240.678L69.2388 245.014L68.6788 244.646H69.1108C70.4548 244.646 71.4575 244.945 72.1188 245.542C72.7908 246.14 73.1268 246.908 73.1268 247.846C73.1268 248.476 72.9775 249.041 72.6788 249.542C72.3801 250.044 71.9268 250.438 71.3188 250.726C70.7215 251.014 69.9695 251.158 69.0628 251.158ZM78.214 251.158C77.35 251.158 76.582 250.934 75.91 250.486C75.238 250.028 74.71 249.377 74.326 248.534C73.942 247.681 73.75 246.657 73.75 245.462C73.75 244.268 73.942 243.249 74.326 242.406C74.71 241.553 75.238 240.902 75.91 240.454C76.582 239.996 77.35 239.766 78.214 239.766C79.078 239.766 79.846 239.996 80.518 240.454C81.19 240.902 81.718 241.553 82.102 242.406C82.4967 243.249 82.694 244.268 82.694 245.462C82.694 246.657 82.4967 247.681 82.102 248.534C81.718 249.377 81.19 250.028 80.518 250.486C79.846 250.934 79.078 251.158 78.214 251.158ZM78.214 250.102C78.8754 250.102 79.4514 249.926 79.942 249.574C80.4327 249.212 80.8167 248.689 81.094 248.006C81.3714 247.313 81.51 246.465 81.51 245.462C81.51 244.46 81.3714 243.617 81.094 242.934C80.8167 242.241 80.4327 241.718 79.942 241.366C79.4514 241.004 78.8754 240.822 78.214 240.822C77.574 240.822 77.0034 241.004 76.502 241.366C76.0007 241.718 75.6114 242.241 75.334 242.934C75.0567 243.617 74.918 244.46 74.918 245.462C74.918 246.465 75.0567 247.313 75.334 248.006C75.6114 248.689 76.0007 249.212 76.502 249.574C77.0034 249.926 77.574 250.102 78.214 250.102Z" fill="white"/>
<rect x="94.2927" y="227.062" width="40.1867" height="37.0125" fill="white"/>
<path d="M111.765 251.142C110.943 251.142 110.175 251.004 109.461 250.726C108.757 250.449 108.207 250.086 107.813 249.638L108.229 249.014C108.57 249.409 109.05 249.74 109.669 250.006C110.298 250.262 110.997 250.39 111.765 250.39C112.767 250.39 113.53 250.166 114.053 249.718C114.586 249.27 114.853 248.668 114.853 247.91C114.853 247.164 114.586 246.566 114.053 246.118C113.53 245.66 112.709 245.43 111.589 245.43H110.885V244.838L114.453 240.278L114.565 240.598H108.229V239.862H115.253V240.438L111.701 244.998L111.349 244.742H111.701C113.034 244.742 114.031 245.036 114.693 245.622C115.354 246.209 115.685 246.972 115.685 247.91C115.685 248.529 115.535 249.084 115.237 249.574C114.949 250.065 114.511 250.449 113.925 250.726C113.349 251.004 112.629 251.142 111.765 251.142ZM118.407 251.062V240.214L118.775 240.598H115.671V239.862H119.223V251.062H118.407Z" fill="#1C281C"/>
<path d="M105.036 29.216L104.988 27.776L111.772 20.8H113.132L108.188 25.984L107.516 26.704L105.036 29.216ZM104.012 32V20.8H105.196V32H104.012ZM112.06 32L107.228 26.432L108.028 25.568L113.468 32H112.06ZM115.28 32L112.112 23.6H113.2L116.08 31.392H115.584L118.544 23.6H119.52L122.448 31.392H121.952L124.88 23.6H125.92L122.736 32H121.664L118.848 24.672H119.184L116.352 32H115.28ZM126.631 32V23.6H127.767V32H126.631ZM127.207 21.744C126.972 21.744 126.775 21.664 126.615 21.504C126.455 21.344 126.375 21.152 126.375 20.928C126.375 20.704 126.455 20.5173 126.615 20.368C126.775 20.208 126.972 20.128 127.207 20.128C127.442 20.128 127.639 20.2027 127.799 20.352C127.959 20.5013 128.039 20.688 128.039 20.912C128.039 21.1467 127.959 21.344 127.799 21.504C127.65 21.664 127.452 21.744 127.207 21.744ZM133.496 32.08C132.621 32.08 131.853 31.8987 131.192 31.536C130.53 31.1627 130.013 30.656 129.64 30.016C129.266 29.3653 129.08 28.624 129.08 27.792C129.08 26.96 129.256 26.224 129.608 25.584C129.97 24.944 130.461 24.4427 131.08 24.08C131.709 23.7067 132.413 23.52 133.192 23.52C133.981 23.52 134.68 23.7013 135.288 24.064C135.906 24.416 136.392 24.9173 136.744 25.568C137.096 26.208 137.272 26.9493 137.272 27.792C137.272 27.8453 137.266 27.904 137.256 27.968C137.256 28.0213 137.256 28.08 137.256 28.144H129.944V27.296H136.648L136.2 27.632C136.2 27.024 136.066 26.4853 135.8 26.016C135.544 25.536 135.192 25.1627 134.744 24.896C134.296 24.6293 133.778 24.496 133.192 24.496C132.616 24.496 132.098 24.6293 131.64 24.896C131.181 25.1627 130.824 25.536 130.568 26.016C130.312 26.496 130.184 27.0453 130.184 27.664V27.84C130.184 28.48 130.322 29.0453 130.6 29.536C130.888 30.016 131.282 30.3947 131.784 30.672C132.296 30.9387 132.877 31.072 133.528 31.072C134.04 31.072 134.514 30.9813 134.952 30.8C135.4 30.6187 135.784 30.3413 136.104 29.968L136.744 30.704C136.37 31.152 135.901 31.4933 135.336 31.728C134.781 31.9627 134.168 32.08 133.496 32.08ZM142.072 32.08C141.24 32.08 140.493 31.8987 139.832 31.536C139.181 31.1627 138.669 30.656 138.296 30.016C137.923 29.3653 137.736 28.624 137.736 27.792C137.736 26.9493 137.923 26.208 138.296 25.568C138.669 24.928 139.181 24.4267 139.832 24.064C140.493 23.7013 141.24 23.52 142.072 23.52C142.787 23.52 143.432 23.6587 144.008 23.936C144.584 24.2133 145.037 24.6293 145.368 25.184L144.52 25.76C144.232 25.3333 143.875 25.0187 143.448 24.816C143.021 24.6133 142.557 24.512 142.056 24.512C141.459 24.512 140.92 24.6507 140.44 24.928C139.96 25.1947 139.581 25.5733 139.304 26.064C139.027 26.5547 138.888 27.1307 138.888 27.792C138.888 28.4533 139.027 29.0293 139.304 29.52C139.581 30.0107 139.96 30.3947 140.44 30.672C140.92 30.9387 141.459 31.072 142.056 31.072C142.557 31.072 143.021 30.9707 143.448 30.768C143.875 30.5653 144.232 30.256 144.52 29.84L145.368 30.416C145.037 30.96 144.584 31.376 144.008 31.664C143.432 31.9413 142.787 32.08 142.072 32.08ZM146.475 32V23.6H147.611V32H146.475ZM147.051 21.744C146.816 21.744 146.619 21.664 146.459 21.504C146.299 21.344 146.219 21.152 146.219 20.928C146.219 20.704 146.299 20.5173 146.459 20.368C146.619 20.208 146.816 20.128 147.051 20.128C147.285 20.128 147.483 20.2027 147.643 20.352C147.803 20.5013 147.883 20.688 147.883 20.912C147.883 21.1467 147.803 21.344 147.643 21.504C147.493 21.664 147.296 21.744 147.051 21.744ZM153.34 32.08C152.465 32.08 151.697 31.8987 151.036 31.536C150.374 31.1627 149.857 30.656 149.484 30.016C149.11 29.3653 148.924 28.624 148.924 27.792C148.924 26.96 149.1 26.224 149.452 25.584C149.814 24.944 150.305 24.4427 150.924 24.08C151.553 23.7067 152.257 23.52 153.036 23.52C153.825 23.52 154.524 23.7013 155.132 24.064C155.75 24.416 156.236 24.9173 156.588 25.568C156.94 26.208 157.116 26.9493 157.116 27.792C157.116 27.8453 157.11 27.904 157.1 27.968C157.1 28.0213 157.1 28.08 157.1 28.144H149.788V27.296H156.492L156.044 27.632C156.044 27.024 155.91 26.4853 155.644 26.016C155.388 25.536 155.036 25.1627 154.588 24.896C154.14 24.6293 153.622 24.496 153.036 24.496C152.46 24.496 151.942 24.6293 151.484 24.896C151.025 25.1627 150.668 25.536 150.412 26.016C150.156 26.496 150.028 27.0453 150.028 27.664V27.84C150.028 28.48 150.166 29.0453 150.444 29.536C150.732 30.016 151.126 30.3947 151.628 30.672C152.14 30.9387 152.721 31.072 153.372 31.072C153.884 31.072 154.358 30.9813 154.796 30.8C155.244 30.6187 155.628 30.3413 155.948 29.968L156.588 30.704C156.214 31.152 155.745 31.4933 155.18 31.728C154.625 31.9627 154.012 32.08 153.34 32.08ZM162.716 23.52C163.398 23.52 163.996 23.6533 164.508 23.92C165.03 24.176 165.436 24.5707 165.724 25.104C166.022 25.6373 166.172 26.3093 166.172 27.12V32H165.036V27.232C165.036 26.3467 164.812 25.68 164.364 25.232C163.926 24.7733 163.308 24.544 162.508 24.544C161.91 24.544 161.388 24.6667 160.94 24.912C160.502 25.1467 160.161 25.4933 159.916 25.952C159.681 26.4 159.564 26.944 159.564 27.584V32H158.428V23.6H159.516V25.904L159.34 25.472C159.606 24.864 160.033 24.3893 160.62 24.048C161.206 23.696 161.905 23.52 162.716 23.52ZM161.244 22.288L163.436 20.304H164.956L162.364 22.288H161.244ZM170.468 32V31.184L175.124 26.624C175.55 26.208 175.87 25.8453 176.084 25.536C176.297 25.216 176.441 24.9173 176.516 24.64C176.59 24.3627 176.628 24.1013 176.628 23.856C176.628 23.2053 176.404 22.6933 175.956 22.32C175.518 21.9467 174.868 21.76 174.004 21.76C173.342 21.76 172.756 21.8613 172.244 22.064C171.742 22.2667 171.31 22.5813 170.948 23.008L170.132 22.304C170.569 21.792 171.129 21.3973 171.812 21.12C172.494 20.8427 173.257 20.704 174.1 20.704C174.857 20.704 175.513 20.8267 176.068 21.072C176.622 21.3067 177.049 21.6533 177.348 22.112C177.657 22.5707 177.812 23.1093 177.812 23.728C177.812 24.0907 177.758 24.448 177.652 24.8C177.556 25.152 177.374 25.5253 177.108 25.92C176.852 26.304 176.473 26.7413 175.972 27.232L171.7 31.424L171.38 30.976H178.324V32H170.468ZM183.202 32.096C182.338 32.096 181.57 31.872 180.898 31.424C180.226 30.9653 179.698 30.3147 179.314 29.472C178.93 28.6187 178.738 27.5947 178.738 26.4C178.738 25.2053 178.93 24.1867 179.314 23.344C179.698 22.4907 180.226 21.84 180.898 21.392C181.57 20.9333 182.338 20.704 183.202 20.704C184.066 20.704 184.834 20.9333 185.506 21.392C186.178 21.84 186.706 22.4907 187.09 23.344C187.485 24.1867 187.682 25.2053 187.682 26.4C187.682 27.5947 187.485 28.6187 187.09 29.472C186.706 30.3147 186.178 30.9653 185.506 31.424C184.834 31.872 184.066 32.096 183.202 32.096ZM183.202 31.04C183.864 31.04 184.44 30.864 184.93 30.512C185.421 30.1493 185.805 29.6267 186.082 28.944C186.36 28.2507 186.498 27.4027 186.498 26.4C186.498 25.3973 186.36 24.5547 186.082 23.872C185.805 23.1787 185.421 22.656 184.93 22.304C184.44 21.9413 183.864 21.76 183.202 21.76C182.562 21.76 181.992 21.9413 181.49 22.304C180.989 22.656 180.6 23.1787 180.322 23.872C180.045 24.5547 179.906 25.3973 179.906 26.4C179.906 27.4027 180.045 28.2507 180.322 28.944C180.6 29.6267 180.989 30.1493 181.49 30.512C181.992 30.864 182.562 31.04 183.202 31.04ZM188.124 32V31.184L192.78 26.624C193.207 26.208 193.527 25.8453 193.74 25.536C193.953 25.216 194.097 24.9173 194.172 24.64C194.247 24.3627 194.284 24.1013 194.284 23.856C194.284 23.2053 194.06 22.6933 193.612 22.32C193.175 21.9467 192.524 21.76 191.66 21.76C190.999 21.76 190.412 21.8613 189.9 22.064C189.399 22.2667 188.967 22.5813 188.604 23.008L187.788 22.304C188.225 21.792 188.785 21.3973 189.468 21.12C190.151 20.8427 190.913 20.704 191.756 20.704C192.513 20.704 193.169 20.8267 193.724 21.072C194.279 21.3067 194.705 21.6533 195.004 22.112C195.313 22.5707 195.468 23.1093 195.468 23.728C195.468 24.0907 195.415 24.448 195.308 24.8C195.212 25.152 195.031 25.5253 194.764 25.92C194.508 26.304 194.129 26.7413 193.628 27.232L189.356 31.424L189.036 30.976H195.98V32H188.124ZM195.874 29.056V28.224L201.81 20.8H203.09L197.202 28.224L196.578 28.032H205.586V29.056H195.874ZM202.194 32V29.056L202.226 28.032V25.44H203.346V32H202.194Z" fill="black"/>
</svg>
