<svg width="599" height="481" viewBox="0 0 599 481" fill="none" xmlns="http://www.w3.org/2000/svg">
<g opacity="0.25" clip-path="url(#clip0_5_14107)">
<path d="M396.991 638.328C392.321 635.209 385.35 630.194 381.5 627.184C373.092 620.61 200 448.071 200 446.263C200 445.568 200.329 445 200.732 445C201.134 445 241.297 484.772 289.982 533.383C379.86 623.123 386.88 629.668 403.798 639.5C406.637 641.15 408.969 642.837 408.98 643.25C409.033 645.255 404.695 643.474 396.991 638.328ZM286.364 558.846C213.895 486.427 198.832 470.758 203.063 472.193C203.56 472.362 242.129 510.637 288.771 557.25C345.937 614.381 372.922 642 371.574 642C370.258 642 341.134 613.578 286.364 558.846ZM431 634.179C414.293 626.637 404.027 620.429 388 608.179C376.375 599.294 202 425.264 202 422.547C202 421.197 231.506 449.991 292.75 511.109C360.452 578.671 385.913 603.45 393 608.677C408.855 620.37 423.172 628.435 438.786 634.472C444.486 636.675 446.643 637.923 445.508 638.358C442.825 639.388 442.035 639.16 431 634.179ZM272.689 573.25C220.378 521.026 209.804 509.863 211.265 508.401C211.442 508.225 239.691 536.187 274.04 570.54C315.871 612.375 335.841 633 334.517 633C333.236 633 311.433 611.929 272.689 573.25ZM475.5 625.886C456.95 621.65 434.014 612.665 418.721 603.643C396.338 590.438 396.451 590.542 298.75 493.074C247.738 442.183 206 399.875 206 399.056C206 398.237 246.612 438.081 296.25 487.599C345.887 537.116 389.94 580.354 394.144 583.683C417.932 602.515 444.48 615.518 472.5 622.059C478 623.343 482.712 624.555 482.971 624.751C483.475 625.134 480.838 627.027 480 626.884C479.725 626.837 477.7 626.388 475.5 625.886ZM495.5 608.021C457.433 601.879 424.032 586.737 395.5 562.688C392.2 559.906 349.563 517.785 300.75 469.084C242.171 410.638 212 379.857 212 378.536C212 377.187 241.511 405.989 302.75 467.106C352.662 516.919 396.875 560.384 401 563.695C429.882 586.873 466.133 602.128 501.863 606.139C507.713 606.796 512.712 607.508 512.971 607.721C513.804 608.407 510.566 609.972 508.5 609.883C507.4 609.835 501.55 608.997 495.5 608.021ZM278.5 602.6C269.997 596.087 243.801 569.419 239.109 562.5C236.892 559.23 244.419 566.149 260.859 582.492C274.687 596.238 286 607.601 286 607.742C286 608.289 285.289 607.801 278.5 602.6ZM512.5 589.824C472.759 585.823 434.814 570.303 404.5 545.65C394.157 537.239 218.351 361.316 219.32 360.347C219.724 359.943 260.205 399.668 309.277 448.626C358.35 497.583 402.1 540.497 406.5 543.99C440.346 570.859 480.298 585.818 523.245 587.703C534.608 588.202 536.797 588.54 535.873 589.653C534.594 591.194 526.675 591.251 512.5 589.824ZM522 569.321C480.425 565.06 445.609 551.487 414 527.218C402.296 518.232 227.981 344.212 228.73 342.261C229.104 341.287 258.667 370.134 318.893 430.238C368.177 479.423 411.425 521.933 415 524.705C438.826 543.179 467.185 556.411 495.76 562.384C510.363 565.437 521.226 566.69 540.73 567.568C549.107 567.945 555.718 568.647 555.421 569.127C554.913 569.95 529.571 570.097 522 569.321ZM530 547.9C487.28 544.19 452.147 530.483 418 504.204C406.296 495.197 238.453 327.694 239.475 326.041C239.984 325.217 269.011 353.513 326.869 411.236C418.863 503.015 422.98 506.787 444.745 519.207C477.041 537.638 511.363 545.997 554.75 545.999C567.639 546 570 546.232 570 547.5C570 548.774 567.7 548.979 554.75 548.862C546.363 548.787 535.225 548.354 530 547.9ZM537 528.311C494.448 525.099 453.912 509.211 422 483.238C411.952 475.06 250.384 313.283 251.324 312.342C251.731 311.936 288.612 348.059 333.282 392.616C377.952 437.172 417.2 475.904 420.5 478.687C450.817 504.248 487.085 519.772 527.494 524.485C534.641 525.318 545.216 526.002 550.994 526.005C565.656 526.013 581.036 527.133 580.408 528.149C579.917 528.943 547.004 529.066 537 528.311ZM559.5 507.975C537.678 507.246 525.365 505.776 509 501.947C481.646 495.545 454.639 482.67 432.039 465.257C424.046 459.099 264 300.537 264 298.776C264 298.349 264.553 298 265.23 298C265.906 298 302.469 333.933 346.48 377.851C435.734 466.917 439.535 470.271 466.5 483.749C496.035 498.512 522.257 504.214 566.794 505.562C582.678 506.043 588.981 506.562 588.717 507.368C588.242 508.816 586.042 508.862 559.5 507.975ZM545 486.833C503.835 482.956 463.919 466.286 432.256 439.749C419.678 429.208 278.689 287.313 279.495 286.008C279.997 285.195 306.243 310.717 357.376 361.739C399.794 404.065 437.2 440.728 440.5 443.211C458.316 456.616 480.107 468.195 499.354 474.484C518.741 480.819 544.168 485 563.305 485C577.159 485 594 486.181 594 487.152C594 488.242 557.435 488.004 545 486.833ZM570 467.974C549.522 467.256 539.384 466.135 524.5 462.94C496.729 456.978 467.377 443.233 444.039 425.261C432.332 416.245 292.63 276.85 294.272 275.823C295.086 275.315 319.629 299.118 367 346.358C406.325 385.574 441.425 419.929 445 422.702C462.6 436.356 486.537 448.997 507 455.445C526.654 461.637 542.092 463.98 571.645 465.256C592.418 466.153 597.686 466.654 597.288 467.693C596.983 468.486 595.355 468.933 593.143 468.829C591.139 468.735 580.725 468.35 570 467.974ZM571.5 446.981C523.04 444.86 483.038 430.339 447.5 401.969C439.514 395.593 311 268.341 311 266.809C311 266.364 311.545 266 312.211 266C312.878 266 342.465 294.947 377.962 330.328C414.226 366.473 446.224 397.523 451 401.2C481.998 425.07 514.217 438.286 552.769 442.949C557.317 443.499 569.594 444.256 580.05 444.631C593.086 445.099 598.949 445.657 598.702 446.407C598.246 447.793 592.711 447.91 571.5 446.981ZM565.056 427.887C524.175 424.258 485.098 408.548 454 383.238C443.999 375.099 328.382 259.284 329.321 258.346C329.725 257.941 356.256 283.712 388.278 315.613C420.3 347.513 449.2 375.894 452.5 378.68C480.858 402.621 514.295 417.694 552.072 423.565C557.807 424.457 570.339 425.482 579.919 425.843C592.483 426.317 597.454 426.848 597.753 427.75C598.236 429.21 580.786 429.283 565.056 427.887ZM568 407.87C528.75 403.88 493.211 389.729 462 365.663C455.45 360.612 348 254.207 348 252.771C348 252.347 348.553 252 349.229 252C349.905 252 374.768 276.246 404.479 305.881C461.259 362.513 468.56 368.988 488.022 379.958C515.877 395.661 547.232 404.465 579.75 405.715C591.593 406.17 595 406.603 595 407.651C595 409.218 582.278 409.322 568 407.87ZM572.5 386.835C559.909 385.414 541.494 381.407 529.5 377.479C507.608 370.309 481.273 355.652 463.943 340.991C450.459 329.585 369.953 248.647 371.277 247.828C372.079 247.332 387.98 262.481 417.5 291.867C442.25 316.505 466.325 339.604 471 343.197C493.653 360.611 517.519 372.188 544.864 379.029C557.099 382.09 576.687 385 585.051 385C588.783 385 590 385.369 590 386.5C590 388.226 585.574 388.311 572.5 386.835ZM568 365.021C533.202 359.08 502.867 345.959 476.039 325.243C464.186 316.091 394.371 246.609 396.57 246.153C397.675 245.924 410.359 257.846 433.872 281.213C472.177 319.279 474.435 321.324 489.298 331.393C512.83 347.336 540.808 358.112 570.599 362.708C577.449 363.764 582.156 364.965 582.45 365.73C583.075 367.359 581.138 367.263 568 365.021ZM559.5 342.541C543.872 338.915 530.706 334.173 516.023 326.879C490.234 314.069 476.508 303.238 441.509 268.084C427.412 253.924 421.148 247 422.437 247C423.604 247 434.37 256.909 449.928 272.303C482.744 304.774 493.86 313.286 519.5 325.574C533.253 332.165 549.132 337.677 562.705 340.571C567.243 341.539 571.139 342.92 571.423 343.66C572.082 345.376 571.483 345.32 559.5 342.541ZM542.5 314.883C522.256 307.408 499.245 294.102 483.101 280.536C473.143 272.169 455.171 254 456.852 254C457.576 254 463.642 259.149 470.334 265.442C477.025 271.735 485.2 279 488.5 281.586C504.256 293.933 523.24 304.688 540.5 311.045C545.45 312.868 550.388 315.179 551.472 316.18C554.258 318.75 552.149 318.446 542.5 314.883Z" fill="#B9B9B9"/>
<path d="M396.878 638.166C392.82 635.508 385.9 630.498 381.5 627.035C370.214 618.15 200.608 448.641 201.249 446.887C201.571 446.008 234.338 477.992 290.628 534.128C378.244 621.503 385.777 628.567 402.024 638.595C405.311 640.624 408 642.445 408 642.642C408 644.198 403.035 642.2 396.878 638.166ZM368.385 639.85C362.717 635.627 203 475.475 203 474.016C203 473.197 225.613 495.023 253.25 522.518C280.888 550.013 319.277 588.145 338.56 607.255C369.838 638.251 377.551 646.681 368.385 639.85ZM432.458 634.621C415.656 627.35 401.428 618.781 386.334 606.844C374.584 597.552 202 424.997 202 422.542C202 421.185 231.509 449.984 293.25 511.598C348.18 566.415 387.485 604.862 392 608.193C407.639 619.73 424.624 629.303 439.696 635.075C443.509 636.535 445.433 637.741 444.696 638.209C443.027 639.27 443.561 639.426 432.458 634.621ZM273.205 572.75C217.507 517.13 210.159 509.508 211.212 508.455C211.418 508.249 239.691 536.187 274.04 570.54C308.39 604.893 335.829 633 335.016 633C334.204 633 306.389 605.887 273.205 572.75ZM470 624.367C442.972 617.237 416.227 604.163 395 587.705C386.391 581.03 206 400.955 206 399.036C206 398.217 246.838 438.302 296.75 488.115C350.66 541.917 390.951 581.335 396 585.215C420.151 603.775 446.873 616.655 473.5 622.573C477.9 623.551 481.928 624.722 482.45 625.176C483.949 626.477 476.053 625.964 470 624.367ZM502 608.913C465.882 604.284 431.313 590.122 402.5 568.15C392.274 560.351 212 381.009 212 378.634C212 377.167 239.428 403.918 304.25 468.609C398.06 562.228 403.697 567.492 422.5 579.036C445.388 593.087 478.128 604.143 504 606.558C508.125 606.943 511.886 607.482 512.357 607.754C513.334 608.32 511.016 610.027 509.5 609.858C508.95 609.797 505.575 609.371 502 608.913ZM277.473 601.654C267.99 594.106 243.907 569.51 239.109 562.473C236.932 559.279 244.713 566.441 260.859 582.492C290.508 611.966 290.682 612.167 277.473 601.654ZM519 590.311C476.824 587.127 437.115 571.67 405 545.935C394.543 537.556 218.294 361.373 219.331 360.336C219.74 359.926 259.771 399.217 308.288 447.649C356.805 496.081 399.849 538.538 403.943 541.998C435.597 568.749 478.588 585.636 520 587.586C533.314 588.212 536.312 588.686 535.482 590.029C534.911 590.952 528.867 591.056 519 590.311ZM519.051 568.852C476.931 564.454 437.124 547.334 405.901 520.191C391.734 507.874 227.533 343.406 228.69 342.691C229.198 342.377 270.313 382.482 320.057 431.813C415.633 526.596 418.548 529.259 440.25 541.643C468.231 557.609 499.88 565.953 538.75 567.613C547.688 567.994 555 568.688 555 569.153C555 570.227 530.225 570.019 519.051 568.852ZM532.999 547.929C491.228 545.091 453.676 531.166 420.5 506.212C412.631 500.293 238.937 326.911 239.677 325.714C239.99 325.208 279.228 363.685 326.873 411.219C374.518 458.753 416.425 499.903 420 502.664C457.459 531.59 500.24 545.966 549 546.01C563.483 546.021 570.286 546.728 569.421 548.128C568.789 549.15 549.421 549.045 532.999 547.929ZM535 527.896C490.998 524.057 452.308 508.416 420 481.405C409.334 472.488 250.434 313.233 251.319 312.348C251.723 311.944 289.278 348.758 334.776 394.155C389.385 448.643 420.678 479.127 426.849 483.849C452.893 503.774 478.9 515.655 510.147 521.903C524.39 524.751 534.97 525.741 559.737 526.544C571.594 526.928 580.733 527.622 580.428 528.116C579.762 529.194 548.121 529.041 535 527.896ZM545 507.344C522.191 505.159 508.918 502.574 491.942 497.012C470.824 490.094 450.951 479.459 431.849 464.853C419.436 455.362 263.581 300.019 265.024 298.576C265.691 297.909 293.249 324.72 347.762 379.073C407.339 438.474 431.717 462.132 437.676 466.331C456.73 479.757 473.653 488.476 493 494.835C514.971 502.056 532.682 504.682 565.938 505.648C578.58 506.016 588.689 506.695 588.402 507.158C587.918 507.941 552.804 508.092 545 507.344ZM547.5 486.872C504.627 483.213 464.411 466.735 432.5 439.753C420.693 429.77 278.375 287.292 279.293 286.374C279.682 285.985 312.962 318.496 353.25 358.621C393.537 398.745 430.1 434.644 434.5 438.395C459.529 459.734 492.664 475.257 526.5 481.496C539.601 483.911 566.697 485.91 587.25 485.978C591.069 485.989 594 486.434 594 487C594 488.211 562.162 488.123 547.5 486.872ZM550 466.833C507.624 462.842 466.792 445.307 435 417.448C420.994 405.174 292.248 276 294.021 276C294.854 276 328.153 308.298 368.018 347.772C445.3 424.298 449.622 428.164 471.5 440.329C490.015 450.625 513.311 458.67 535.575 462.457C546.686 464.347 569.469 465.965 585.25 465.985C592.407 465.993 597 466.391 597 467C597 468.235 563.62 468.116 550 466.833ZM576 446.954C527.908 445.308 492.518 433.975 456.69 408.747C448.242 402.799 434.914 390.028 378.727 334.044C341.452 296.903 311.46 266.347 312.078 266.141C312.697 265.935 342.519 294.994 378.351 330.717C454.207 406.343 459.211 410.609 488.364 424.506C516.916 438.116 540.846 443.452 578.781 444.667C591.968 445.089 598.941 445.676 598.718 446.346C598.247 447.758 598.949 447.739 576 446.954ZM567 427.9C523.177 424.094 483.801 408.187 452 381.443C441.22 372.377 328.444 259.223 329.318 258.349C329.72 257.947 356.925 284.409 389.774 317.154C450.076 377.264 458.768 385.168 476.915 396.393C505.685 414.19 539.449 424.397 573.5 425.591C591.228 426.213 598 426.899 598 428.072C598 429.172 580.526 429.075 567 427.9ZM569 407.833C529.137 404.079 490.711 388.504 460 363.654C448.112 354.034 347.196 253.471 348.312 252.355C348.71 251.957 372.54 275.025 401.268 303.618C429.996 332.211 457.1 358.471 461.5 361.973C495.556 389.081 532.651 403.017 578.688 405.999C586.834 406.527 593.838 406.968 594.25 406.979C594.663 406.991 595 407.45 595 408C595 409.192 582.58 409.112 569 407.833ZM574.051 386.852C534.743 382.747 497.114 367.395 466.5 342.973C454.202 333.163 369.511 248.574 371.564 248.152C372.694 247.92 388.21 262.693 418.377 292.724C443.195 317.43 466.425 339.917 470 342.695C477.582 348.585 490.751 357.19 500 362.296C521.352 374.085 557.275 383.901 583.921 385.23C587.163 385.391 589.508 386.003 589.755 386.75C590.229 388.188 587.042 388.208 574.051 386.852ZM566.5 364.571C527.852 357.811 495.673 342.571 467 317.449C450.789 303.246 394.275 246 396.464 246C397.694 246 411.937 259.444 434.958 282.332C455.056 302.315 475.184 321.439 479.687 324.829C505.528 344.287 532.442 355.926 565.739 362.044C571.595 363.12 577.601 364 579.086 364C580.571 364 582.045 364.675 582.362 365.5C583.094 367.409 582.533 367.376 566.5 364.571ZM561 342.867C531.605 336.117 504.522 323.173 480 304.153C468.058 294.89 420.32 247.599 422.472 247.164C423.55 246.946 433.719 256.286 451.326 273.664C469.978 292.073 481.496 302.607 488.008 307.209C509.678 322.525 532.58 333.172 556.574 339.083C563.683 340.835 570.159 342.883 570.964 343.634C572.91 345.449 571.906 345.372 561 342.867ZM542.1 314.488C521.315 306.942 500.1 294.591 482.5 279.79C471.663 270.676 455.044 254 456.798 254C457.489 254 463.105 258.79 469.277 264.644C493.769 287.874 515.476 301.959 542.232 311.981C547.035 313.78 551.477 315.87 552.105 316.626C553.705 318.555 552.728 318.346 542.1 314.488Z" fill="#A3A3A3"/>
<path d="M395.991 637.336C391.321 634.221 384.125 628.972 380 625.673C370.226 617.855 201 448.994 201 447.059C201 446.245 240.038 484.521 287.75 532.116C373.217 617.373 382.652 626.216 400.43 637.724C405.504 641.009 407.754 642.958 406.491 642.974C405.386 642.989 400.661 640.451 395.991 637.336ZM370 640.884C366.723 639.589 203 476 203 474.022C203 473.188 239.113 508.53 283.25 552.56C327.388 596.59 365.843 634.727 368.707 637.308C374.089 642.158 374.235 642.559 370 640.884ZM435 635.603C416.356 627.49 400.974 618.283 385.5 605.975C374.248 597.024 201.615 424.656 202.186 422.942C202.464 422.109 238.297 457.082 293.571 512.133C386.325 604.511 391.869 609.668 410.5 620.895C418.706 625.84 429.744 631.251 439.333 635.029C444.069 636.895 445.655 637.918 444.501 638.361C443.586 638.713 442.761 638.97 442.668 638.933C442.576 638.896 439.125 637.398 435 635.603ZM272.843 572.334C239.46 538.968 211.906 510.75 211.613 509.627C211.319 508.504 239.186 535.689 273.539 570.039C307.893 604.389 336 632.608 336 632.747C336 634.949 324.091 623.557 272.843 572.334ZM465.959 623.02C447.933 618.181 430.131 610.552 414.247 600.856C395.871 589.641 389.846 584.015 297.25 491.609C247.062 441.524 206 399.869 206 399.041C206 398.213 247.062 438.521 297.25 488.614C351.959 543.22 391.904 582.304 397 586.212C419.846 603.734 443.146 614.984 471.755 622.308C476.845 623.611 481.308 624.974 481.672 625.338C483.096 626.763 476.007 625.717 465.959 623.02ZM506 609.301C490.16 607.588 463.842 601.077 450 595.448C432.449 588.311 411.613 575.738 397.101 563.529C386.105 554.278 211.444 379.222 212.328 378.339C212.737 377.93 254.342 418.787 304.785 469.131C355.228 519.475 399.425 562.933 403 565.705C420.555 579.316 442.633 591.038 463.778 597.972C475.397 601.783 499.788 607 505.985 607C509.649 607 512.141 607.963 511.435 609.105C511.131 609.597 510.571 609.928 510.191 609.84C509.811 609.752 507.925 609.51 506 609.301ZM279 602.618C272.035 597.07 242.102 566.655 239.026 562C237.753 560.075 247.577 569.296 260.856 582.492C274.135 595.688 285 606.6 285 606.742C285 607.317 284.271 606.817 279 602.618ZM516.5 589.893C473.275 585.872 436.833 571.414 405 545.653C392.849 535.82 218.177 361.49 219.325 360.341C219.732 359.934 260.663 400.122 310.283 449.647C364.08 503.342 403.931 542.327 409 546.219C421.746 556.004 430.827 561.574 445.364 568.524C470.719 580.646 492.721 586.024 527.253 588.542C532.097 588.895 535.756 589.587 535.444 590.09C534.797 591.138 529.271 591.08 516.5 589.893ZM522 568.921C479.75 564.912 443.766 550.606 411.5 524.99C401.678 517.192 227.88 344.003 228.641 342.771C228.942 342.285 267.958 380.509 315.344 427.711C362.73 474.914 405.1 516.608 409.5 520.365C419.997 529.328 435.972 539.967 447.91 545.945C475.307 559.665 503.179 566.34 538.713 567.693C547.63 568.032 554.691 568.69 554.404 569.155C553.771 570.18 533.739 570.035 522 568.921ZM536.5 547.902C491.213 545.489 450.122 529.993 416.5 502.65C406.108 494.199 239.354 327.313 240.328 326.339C240.736 325.931 279.867 364.32 327.285 411.649C378.354 462.621 416.981 500.379 422.039 504.269C446.218 522.865 473.869 535.529 503.244 541.461C518.617 544.565 530.921 545.981 542.596 545.992C555.705 546.003 570.022 547.155 569.409 548.147C568.804 549.127 557.979 549.046 536.5 547.902ZM536.765 527.892C492.04 524.453 452.277 508.468 419.5 480.753C407.454 470.567 250.384 313.283 251.322 312.345C251.727 311.94 289.507 348.975 335.279 394.644C383.969 443.226 422.043 480.409 427.039 484.258C453.861 504.922 482.946 517.484 517.879 523.493C528.224 525.272 552.575 526.92 569.25 526.969C575.729 526.988 580 527.397 580 528C580 529.19 552.755 529.122 536.765 527.892ZM545.5 507.297C502.44 504.352 462.258 489.003 429.5 462.988C419.463 455.017 263.394 299.492 264.652 298.715C265.16 298.401 302.246 334.489 347.064 378.91C398.249 429.642 431.603 461.938 436.755 465.758C458.667 482.005 481.431 492.723 507.5 499.067C525.942 503.555 538.366 504.991 564.714 505.677C578.031 506.024 588.692 506.688 588.405 507.154C587.915 507.947 556.523 508.052 545.5 507.297ZM549.765 486.893C517.309 484.396 486.933 475.082 460.486 459.518C439.443 447.133 434.222 442.371 354.526 362.886C312.741 321.211 278.89 286.777 279.301 286.365C279.713 285.954 313.901 319.378 355.275 360.641C438.187 443.331 443.963 448.469 469.083 461.873C487.057 471.464 508.963 478.78 530.879 482.51C541.385 484.298 565.727 485.921 582.75 485.969C589.562 485.988 594 486.394 594 487C594 488.191 565.758 488.122 549.765 486.893ZM552.5 466.901C514.024 463.36 477.354 449.743 448.456 428.264C444.08 425.011 435.775 418.039 430 412.769C413.422 397.643 293.51 277.157 294.273 276.394C294.65 276.016 325.806 306.37 363.508 343.848C401.209 381.325 435.531 414.965 439.778 418.602C463.281 438.732 496.162 454.744 526.675 460.92C542.665 464.156 551.279 465.008 574.75 465.671C586.987 466.017 597 466.683 597 467.15C597 468.205 564.707 468.025 552.5 466.901ZM561.5 446.315C543.208 444.718 520.106 439.725 504.279 433.947C484.218 426.623 462.113 413.776 445.5 399.784C433.627 389.785 310.079 266 311.972 266C312.778 266 343.152 295.624 379.469 331.83C424.118 376.344 448.361 399.781 454.334 404.207C492.021 432.129 533.196 444.957 585.25 444.991C593.077 444.995 598 445.386 598 446C598 446.942 571.323 447.172 561.5 446.315ZM569.39 427.912C527.053 424.855 489.106 410.394 456 384.699C447.357 377.991 328.943 259.902 329.673 258.719C329.987 258.212 357.301 284.77 390.372 317.737C423.921 351.182 454.275 380.586 459.039 384.257C485.879 404.938 514.938 417.482 549.961 423.507C557.94 424.88 583.28 426.835 594.75 426.964C596.537 426.982 598 427.45 598 428C598 429.15 586.028 429.113 569.39 427.912ZM571 407.864C528.916 404.035 488.117 387.485 457.943 362.002C446.947 352.716 348.021 253.775 348.675 252.717C348.982 252.219 372.919 275.385 401.867 304.198C430.815 333.011 457.65 359.093 461.5 362.158C495.464 389.204 531.685 402.807 578.657 406.16C587.645 406.802 595 407.703 595 408.163C595 409.177 583.918 409.039 571 407.864ZM581 387.329C545.818 383.8 520.166 376.186 494.022 361.512C474.062 350.31 466.319 343.566 417.231 294.634C391.784 269.267 371.469 248.344 372.088 248.137C372.707 247.931 393.752 268.236 418.856 293.259C467.07 341.317 474.986 348.217 494.749 359.407C518.646 372.937 543.755 380.991 571.5 384.023C588.94 385.929 590 386.103 590 387.061C590 387.98 588.062 388.037 581 387.329ZM571.5 365.435C531.111 359.282 496.707 343.304 466 316.438C452.576 304.693 394.213 246 395.959 246C396.754 246 411.827 260.319 429.453 277.821C447.079 295.323 465.428 313.042 470.229 317.198C497.957 341.197 532.119 356.971 568.5 362.572C574.55 363.504 580.062 364.417 580.75 364.602C582.072 364.957 582.531 367.069 581.25 366.903C580.837 366.85 576.45 366.189 571.5 365.435ZM560.402 342.469C530.316 335.661 501.058 321.384 477.732 302.129C467.936 294.043 421.16 247 422.916 247C423.686 247 436.283 258.843 450.908 273.318C465.534 287.793 481.1 302.282 485.5 305.516C508.782 322.63 533.414 334.112 559.5 340.01C568.72 342.095 572.037 343.357 570.933 344.361C570.695 344.578 565.956 343.726 560.402 342.469ZM541.467 314.081C519.731 305.88 499.8 294.182 482 279.181C470.691 269.65 455.027 254 456.797 254C457.486 254 463.551 259.225 470.275 265.612C494.395 288.522 515.578 302.173 542.5 312.155C550.24 315.025 552.851 316.482 551.921 317.412C551.676 317.657 546.972 316.158 541.467 314.081Z" fill="#8C8C8C"/>
<path d="M395.866 637.163C391.117 633.975 384.437 629.031 381.022 626.178C371.196 617.968 201 448.533 201 446.961C201 446.184 240.263 484.728 288.25 532.615C373.691 617.877 382.804 626.431 400.378 637.872C404.723 640.7 407.414 642.991 406.378 642.98C405.345 642.968 400.615 640.351 395.866 637.163ZM285.717 558.161C240.072 512.6 202.9 474.81 203.113 474.184C203.326 473.558 241.326 510.836 287.558 557.023C333.791 603.21 370.962 641 370.162 641C369.362 641 331.362 603.723 285.717 558.161ZM430.624 633.537C416.827 627.315 405.697 620.801 393.212 611.641C384.476 605.231 365.855 587.159 292.25 513.654C242.613 464.083 202 423.083 202 422.542C202 422 242.163 461.64 291.25 510.629C350.665 569.925 383.625 602.091 389.849 606.851C405.387 618.735 419.097 626.751 436.5 634.127C442.142 636.518 444.567 637.951 443 637.966C441.625 637.981 436.056 635.986 430.624 633.537ZM333.5 632.017C330.694 630.816 212.41 511.945 211.588 509.5C211.218 508.4 239.06 535.624 273.458 569.997C307.856 604.37 336 632.608 336 632.747C336 633.072 335.888 633.039 333.5 632.017ZM471 624.367C452.062 619.372 432.671 611.454 417.489 602.519C396.04 589.896 392.142 586.3 296.75 491.112C246.838 441.307 206 399.879 206 399.051C206 398.223 247.513 438.976 298.25 489.614C348.988 540.251 393.2 583.716 396.5 586.203C419.759 603.733 447.055 616.783 472.5 622.541C476.9 623.537 480.928 624.722 481.45 625.176C482.903 626.437 477.161 625.993 471 624.367ZM499 608.3C457.102 601.14 424.963 586.861 396.5 562.762C386.006 553.878 211.324 379.343 212.125 378.542C212.421 378.245 254.477 419.521 305.582 470.265C358.625 522.933 401.764 564.966 406.105 568.21C413.971 574.089 428.195 583.037 435.928 586.97C452.326 595.311 479.52 603.657 498 606.021C510.411 607.609 514.495 608.863 507 608.785C503.975 608.755 500.375 608.536 499 608.3ZM262.82 587.25C253.457 578.038 244.421 568.7 242.739 566.5C241.057 564.3 248.978 571.721 260.34 582.991C271.703 594.261 281 603.598 281 603.741C281 604.885 277.704 601.895 262.82 587.25ZM518.766 589.893C484.745 587.276 453.134 577.23 425.89 560.378C406.868 548.612 399.933 542.142 308.5 450.863C259 401.446 219.04 361.011 219.7 361.007C220.36 361.003 262.21 402.063 312.7 452.25C389.908 528.996 406.145 544.664 414.846 550.823C447.693 574.073 482.064 585.781 525.73 588.596C531.357 588.958 535.718 589.648 535.421 590.127C534.826 591.09 534.222 591.082 518.766 589.893ZM528.5 569.34C483.7 565.711 448.285 552.624 414.5 527.212C407.924 522.266 229 344.138 229 342.537C229 341.993 268.712 381.171 317.25 429.598C365.787 478.026 409.1 520.504 413.5 523.994C450.042 552.978 494.646 568 544.165 568C551.212 568 554.898 568.357 554.5 569C553.927 569.927 538.273 570.132 528.5 569.34ZM542 547.975C504.669 546.496 473.012 537.866 443.73 521.188C421.948 508.782 417.9 505.075 326.031 413.395C278.473 365.935 239.786 326.881 240.059 326.608C240.332 326.335 280.369 365.574 329.03 413.806C398.848 483.008 419.452 502.871 426.743 508C466.295 535.828 504.549 546.704 563.809 546.972C567.754 546.991 569.886 547.375 569.5 548C569.16 548.55 566.771 548.926 564.191 548.835C561.611 548.743 551.625 548.357 542 547.975ZM540 527.907C497.431 525.395 458.321 510.902 425.15 485.346C416.459 478.65 250.087 313.579 251.055 312.612C251.326 312.341 289.338 349.558 335.524 395.318C381.711 441.079 422.425 480.82 426 483.632C454.337 505.923 489.014 520.124 527 524.995C531.675 525.595 545.513 526.36 557.75 526.697C569.988 527.034 580 527.69 580 528.155C580 529.157 558.983 529.027 540 527.907ZM544 506.919C501.753 503.715 463.965 489.474 432 464.709C424.808 459.137 265 300.108 265 298.524C265 297.977 299.988 332.442 342.75 375.112C385.513 417.782 423.849 455.528 427.943 458.991C444.884 473.323 471.313 488.123 492 494.863C515.06 502.375 531.825 504.906 563.75 505.693C577.088 506.022 588 506.675 588 507.145C588 508.179 558.615 508.028 544 506.919ZM553.427 486.915C508.888 484.217 470.429 469.576 435.5 442.02C425.542 434.164 278.271 287.395 279.307 286.36C279.722 285.945 314.135 319.598 355.781 361.146C400.119 405.38 435.023 439.39 440 443.209C469.412 465.778 502.148 479.13 540 483.998C544.675 484.6 558.738 485.365 571.25 485.699C583.763 486.034 594 486.688 594 487.154C594 488.159 571.812 488.029 553.427 486.915ZM559.5 467.335C547.774 466.37 535.409 464.707 526.542 462.903C498.406 457.179 469.074 443.703 444.5 425.21C437.922 420.26 293.763 276.904 294.561 276.106C294.832 275.835 326.654 307.122 365.277 345.632C403.9 384.143 439.325 418.684 444 422.391C465.881 439.74 493.091 452.966 520.464 459.559C537.703 463.711 549.63 465.086 573.75 465.702C586.538 466.029 597 466.679 597 467.148C597 467.938 568.553 468.08 559.5 467.335ZM563.5 446.298C517.12 443.125 473.787 425.12 440.5 395.193C427.129 383.171 311.439 267.228 312.128 266.539C312.425 266.242 342.781 295.815 379.584 332.258C416.388 368.701 449.964 401.109 454.197 404.276C490.978 431.786 532.989 445 583.674 445C592.558 445 598 445.38 598 446C598 446.945 575.767 447.137 563.5 446.298ZM573.5 427.931C529.328 425.501 491.055 411.49 457.15 385.338C447.838 378.155 327.669 259.027 329.718 259.01C330.388 259.003 358.063 285.9 391.218 318.777C424.373 351.654 454.425 380.847 458 383.649C486.394 405.908 521.56 420.33 558.598 424.906C563.052 425.456 573.739 426.22 582.348 426.604C590.957 426.988 598 427.684 598 428.151C598 429.095 594.012 429.059 573.5 427.931ZM573.5 407.907C530.86 404.437 492.693 389.598 460.5 363.973C450.341 355.887 347.542 253.653 349.061 253.146C349.684 252.939 374.337 276.812 403.847 306.197C455.219 357.353 463.498 364.908 479.543 375.278C508.329 393.881 543.137 404.498 582.25 406.605C589.263 406.983 595 407.677 595 408.146C595 409.138 587.627 409.056 573.5 407.907ZM582.5 387.324C535.963 383.372 496.47 367.748 464 340.443C455.258 333.092 370.059 248 371.44 248C371.953 248 391.976 267.479 415.936 291.286C439.896 315.093 463.1 337.445 467.5 340.957C501.063 367.745 535.709 381.087 583.25 385.529C586.963 385.876 590 386.574 590 387.08C590 387.586 589.213 387.924 588.25 387.832C587.288 387.739 584.7 387.511 582.5 387.324ZM568.5 364.867C533.128 358.437 503.784 345.784 476.5 325.198C469.852 320.182 395.762 246.904 396.546 246.121C396.817 245.85 412.893 261.366 432.27 280.602C477.458 325.461 485.414 331.847 512.5 344.992C532.421 354.66 549.298 359.933 570 362.958C580.572 364.503 584.432 365.884 578 365.821C575.525 365.798 571.25 365.367 568.5 364.867ZM555.5 341.052C525.331 333.218 499.201 319.899 476.5 300.786C466.797 292.617 420.929 247 422.418 247C422.914 247 434.16 257.698 447.41 270.774C480.354 303.286 492.324 312.6 516.5 324.533C523.65 328.063 533.325 332.284 538 333.914C547.501 337.228 565.238 342 568.05 342C569.058 342 570.16 342.45 570.5 343C571.516 344.644 567.147 344.077 555.5 341.052ZM539.5 313.118C511.786 302.529 486.425 285.371 462.5 261.022C451.7 250.031 458.116 253.979 470.5 265.946C493.476 288.146 514.835 301.965 541.74 312.04C546.823 313.943 550.985 315.838 550.99 316.25C551.006 317.42 550.155 317.188 539.5 313.118Z" fill="white"/>
</g>
<g opacity="0.1" clip-path="url(#clip1_5_14107)">
<path d="M201.732 5.72595C206.402 8.8454 213.373 13.8603 217.223 16.8702C225.632 23.4437 398.723 195.983 398.723 197.791C398.723 198.486 398.394 199.054 397.991 199.054C397.589 199.054 357.427 159.282 308.741 110.672C218.863 20.9311 211.843 14.3857 194.925 4.55426C192.086 2.90427 189.754 1.21677 189.743 0.80426C189.69 -1.20078 194.028 0.580139 201.732 5.72595ZM312.359 85.2083C384.828 157.628 399.891 173.297 395.661 171.861C395.163 171.692 356.594 133.417 309.952 86.8043C252.786 29.6736 225.801 2.05429 227.149 2.05429C228.465 2.05429 257.589 30.4759 312.359 85.2083ZM167.723 9.87546C184.43 17.4176 194.696 23.625 210.723 35.8749C222.349 44.7605 396.723 218.79 396.723 221.507C396.723 222.857 367.218 194.063 305.973 132.946C238.271 65.3832 212.81 40.6039 205.723 35.3773C189.868 23.6845 175.551 15.619 159.937 9.58231C154.237 7.37878 152.08 6.13138 153.215 5.69574C155.898 4.66614 156.688 4.89371 167.723 9.87546ZM326.034 70.8043C378.345 123.028 388.919 134.192 387.458 135.653C387.281 135.829 359.033 107.867 324.683 73.5141C282.852 31.6796 262.882 11.0543 264.207 11.0543C265.487 11.0543 287.29 32.1247 326.034 70.8043ZM123.223 18.1685C141.773 22.4045 164.709 31.3895 180.002 40.4114C202.385 53.6162 202.272 53.5123 299.973 150.98C350.986 201.871 392.723 244.179 392.723 244.998C392.723 245.817 352.111 205.973 302.473 156.455C252.836 106.938 208.783 63.7002 204.579 60.3716C180.791 41.5394 154.243 28.5365 126.223 21.995C120.723 20.7109 116.011 19.4995 115.752 19.3029C115.248 18.9206 117.886 17.0274 118.723 17.17C118.998 17.2169 121.023 17.6662 123.223 18.1685ZM103.223 36.033C141.29 42.1755 174.691 57.3171 203.223 81.3662C206.523 84.1477 249.161 126.27 297.973 174.97C356.553 233.416 386.723 264.197 386.723 265.518C386.723 266.868 357.212 238.065 295.973 176.948C246.061 127.135 201.848 83.6698 197.723 80.3594C168.841 57.1812 132.59 41.9261 96.8605 37.9149C91.0099 37.2581 86.0112 36.5462 85.7521 36.3331C84.919 35.6476 88.1572 34.082 90.2232 34.1714C91.3232 34.219 97.1731 35.0567 103.223 36.033ZM320.223 41.4539C328.726 47.9676 354.922 74.6353 359.614 81.5542C361.831 84.8239 354.304 77.9053 337.864 61.5618C324.036 47.8159 312.723 36.4534 312.723 36.3118C312.723 35.7656 313.434 36.2532 320.223 41.4539ZM86.2232 54.2298C125.965 58.231 163.909 73.7511 194.223 98.404C204.566 106.816 380.372 282.739 379.403 283.708C378.999 284.112 338.518 244.386 289.446 195.428C240.373 146.471 196.623 103.557 192.223 100.064C158.377 73.1957 118.425 58.2364 75.478 56.3508C64.1147 55.8519 61.9266 55.514 62.8505 54.4008C64.1288 52.8605 72.0477 52.8027 86.2232 54.2298ZM76.7231 74.7331C118.298 78.9946 153.114 92.5673 184.723 116.836C196.427 125.822 370.742 299.842 369.993 301.793C369.619 302.767 340.056 273.92 279.83 213.816C230.546 164.631 187.298 122.122 183.723 119.35C159.897 100.875 131.538 87.6435 102.963 81.6697C88.3606 78.6169 77.4967 77.3647 57.9927 76.4861C49.6159 76.1089 43.005 75.4072 43.3017 74.9272C43.8103 74.1042 69.1521 73.9568 76.7231 74.7331ZM68.7232 96.1544C111.443 99.8644 146.576 113.571 180.723 139.85C192.427 148.857 360.27 316.36 359.249 318.013C358.739 318.838 329.712 290.541 271.854 232.818C179.86 141.039 175.743 137.267 153.978 124.847C121.682 106.417 87.3605 98.0575 43.9731 98.0551C31.0846 98.0544 28.7231 97.8219 28.7231 96.5542C28.7231 95.2805 31.0231 95.075 43.9731 95.1918C52.3606 95.2674 63.4982 95.7006 68.7232 96.1544ZM61.7231 115.743C104.275 118.955 144.811 134.843 176.723 160.816C186.771 168.995 348.34 330.771 347.399 331.712C346.992 332.118 310.112 295.995 265.441 251.439C220.771 206.882 181.523 168.15 178.223 165.368C147.906 139.806 111.638 124.282 71.2293 119.57C64.0826 118.736 53.5076 118.052 47.7293 118.049C33.0674 118.042 17.6874 116.921 18.315 115.906C18.806 115.111 51.7193 114.988 61.7231 115.743ZM39.2231 136.079C61.0454 136.808 73.3579 138.278 89.7232 142.108C117.077 148.509 144.084 161.384 166.684 178.797C174.677 184.955 334.723 343.518 334.723 345.278C334.723 345.705 334.17 346.054 333.493 346.054C332.817 346.054 296.254 310.121 252.243 266.203C162.99 177.137 159.188 173.783 132.223 160.305C102.688 145.543 76.4662 139.84 31.9293 138.492C16.0448 138.012 9.74203 137.492 10.0065 136.686C10.4815 135.238 12.6807 135.192 39.2231 136.079ZM53.7232 157.221C94.8883 161.098 134.804 177.768 166.467 204.305C179.045 214.847 320.034 356.741 319.228 358.047C318.726 358.859 292.48 333.338 241.347 282.315C198.929 239.989 161.523 203.327 158.223 200.844C140.407 187.439 118.616 175.86 99.3692 169.57C79.9821 163.235 54.5553 159.054 35.4181 159.054C21.5644 159.054 4.72311 157.874 4.72311 156.902C4.72311 155.812 41.2886 156.05 53.7232 157.221ZM28.7231 176.08C49.2016 176.798 59.3391 177.92 74.2231 181.115C101.994 187.076 131.347 200.821 154.684 218.794C166.391 227.809 306.094 367.204 304.451 368.231C303.637 368.739 279.094 344.936 231.723 297.696C192.398 258.481 157.298 224.126 153.723 221.352C136.123 207.698 112.186 195.057 91.7231 188.61C72.0689 182.417 56.6307 180.074 27.0785 178.798C6.30469 177.901 1.03683 177.4 1.43549 176.362C1.74011 175.568 3.36807 175.121 5.58011 175.225C7.58377 175.32 17.9982 175.704 28.7231 176.08ZM27.2231 197.073C75.683 199.194 115.685 213.715 151.223 242.085C159.209 248.461 287.723 375.713 287.723 377.246C287.723 377.69 287.178 378.054 286.512 378.054C285.845 378.054 256.258 349.107 220.762 313.727C184.497 277.581 152.499 246.532 147.723 242.854C116.725 218.985 84.5065 205.768 45.9538 201.106C41.4057 200.556 29.1292 199.798 18.6728 199.423C5.63733 198.955 -0.22583 198.397 0.020752 197.647C0.476746 196.261 6.01212 196.144 27.2231 197.073ZM33.6668 216.168C74.5478 219.796 113.625 235.507 144.723 260.816C154.724 268.955 270.341 384.77 269.402 385.709C268.998 386.113 242.468 360.343 210.445 328.442C178.423 296.541 149.523 268.161 146.223 265.374C117.865 241.433 84.4281 226.36 46.6515 220.489C40.9159 219.598 28.3845 218.573 18.804 218.211C6.23984 217.737 1.26938 217.206 0.970642 216.304C0.486908 214.844 17.9373 214.771 33.6668 216.168ZM30.7231 236.184C69.973 240.174 105.512 254.325 136.723 278.391C143.273 283.442 250.723 389.847 250.723 391.283C250.723 391.707 250.17 392.054 249.494 392.054C248.818 392.054 223.956 367.808 194.244 338.173C137.464 281.541 130.163 275.067 110.701 264.096C82.8462 248.393 51.4914 239.589 18.9732 238.339C7.13058 237.884 3.72318 237.451 3.72318 236.404C3.72318 234.836 16.4449 234.733 30.7231 236.184ZM26.2231 257.219C38.8144 258.64 57.2293 262.647 69.2231 266.575C91.1154 273.745 117.45 288.402 134.78 303.063C148.264 314.47 228.77 395.407 227.446 396.226C226.644 396.723 210.743 381.573 181.223 352.187C156.473 327.549 132.398 304.45 127.723 300.857C105.07 283.443 81.2037 271.866 53.8594 265.025C41.6238 261.965 22.0366 259.054 13.6719 259.054C9.9397 259.054 8.72318 258.685 8.72318 257.554C8.72318 255.828 13.1494 255.743 26.2231 257.219ZM30.7231 279.034C65.5208 284.974 95.8559 298.095 122.684 318.811C134.537 327.963 204.353 397.446 202.154 397.901C201.049 398.13 188.364 386.208 164.851 362.841C126.547 324.775 124.288 322.73 109.425 312.661C85.8936 296.719 57.9153 285.942 28.1244 281.347C21.2737 280.29 16.5668 279.089 16.2731 278.324C15.6483 276.696 17.5855 276.791 30.7231 279.034ZM39.2231 301.514C54.8514 305.139 68.0176 309.881 82.6999 317.175C108.489 329.985 122.215 340.816 157.214 375.97C171.311 390.13 177.575 397.054 176.287 397.054C175.119 397.054 164.353 387.145 148.795 371.751C115.979 339.28 104.863 330.769 79.2231 318.48C65.4704 311.889 49.591 306.377 36.0185 303.483C31.4797 302.515 27.5843 301.135 27.3 300.394C26.6415 298.678 27.2406 298.734 39.2231 301.514ZM56.2231 329.171C76.4669 336.646 99.4784 349.952 115.623 363.518C125.58 371.885 143.552 390.054 141.871 390.054C141.148 390.054 135.081 384.905 128.39 378.612C121.698 372.319 113.523 365.054 110.223 362.468C94.4673 350.121 75.4831 339.366 58.2231 333.009C53.2731 331.186 48.3356 328.876 47.2509 327.874C44.4654 325.304 46.5737 325.608 56.2231 329.171Z" fill="#B9B9B9"/>
<path d="M201.845 5.88797C205.903 8.54654 212.823 13.5557 217.223 17.0195C228.509 25.9041 398.115 195.413 397.474 197.167C397.153 198.046 364.385 166.062 308.095 109.926C220.48 22.5515 212.947 15.4871 196.699 5.4588C193.412 3.42993 190.723 1.60889 190.723 1.41208C190.723 -0.143646 195.688 1.85449 201.845 5.88797ZM230.338 4.20404C236.006 8.42752 395.723 168.579 395.723 170.038C395.723 170.857 373.111 149.031 345.473 121.536C317.836 94.0408 279.446 55.9094 260.163 36.7995C228.886 5.8035 221.172 -2.62659 230.338 4.20404ZM166.265 9.43301C183.067 16.7043 197.296 25.2734 212.39 37.2104C224.139 46.5026 396.723 219.057 396.723 221.512C396.723 222.87 367.214 194.07 305.473 132.456C250.543 77.6396 211.238 39.1922 206.723 35.8615C191.084 24.324 174.099 14.751 159.027 8.97885C155.214 7.51883 153.291 6.31339 154.027 5.84543C155.696 4.78427 155.162 4.62781 166.265 9.43301ZM325.518 71.3042C381.216 126.925 388.564 134.546 387.511 135.6C387.305 135.806 359.033 107.867 324.683 73.514C290.333 39.1612 262.894 11.0542 263.707 11.0542C264.519 11.0542 292.335 38.1667 325.518 71.3042ZM128.723 19.6869C155.751 26.8169 182.497 39.891 203.723 56.3493C212.332 63.0242 392.723 243.099 392.723 245.018C392.723 245.837 351.886 205.752 301.973 155.939C248.064 102.138 207.772 62.7191 202.723 58.8389C178.572 40.2795 151.85 27.3988 125.223 21.4811C120.823 20.5032 116.796 19.3321 116.273 18.8787C114.774 17.5775 122.67 18.0901 128.723 19.6869ZM96.7231 35.1409C132.841 39.7701 167.41 53.9324 196.223 75.9044C206.449 83.7027 386.723 263.045 386.723 265.42C386.723 266.888 359.295 240.136 294.473 175.446C200.663 81.8262 195.026 76.5619 176.223 65.0184C153.335 50.9673 120.595 39.9111 94.7231 37.4959C90.5981 37.1108 86.8375 36.5727 86.3663 36.3C85.389 35.7344 87.7073 34.0273 89.2231 34.1963C89.7731 34.2575 93.1481 34.6827 96.7231 35.1409ZM321.25 42.4004C330.733 49.9486 354.817 74.5442 359.614 81.5807C361.792 84.775 354.011 77.6133 337.864 61.5617C308.215 32.0881 308.042 31.8876 321.25 42.4004ZM79.7231 53.7433C121.9 56.9271 161.609 72.3843 193.723 98.119C204.18 106.498 380.429 282.681 379.393 283.718C378.983 284.128 338.952 244.837 290.435 196.405C241.919 147.973 198.874 105.516 194.78 102.056C163.126 75.3048 120.135 58.4177 78.7231 56.4686C65.4089 55.8419 62.4107 55.3687 63.2412 54.0249C63.8117 53.1018 69.8563 52.9985 79.7231 53.7433ZM79.6724 75.2022C121.792 79.6006 161.599 96.7199 192.822 123.864C206.989 136.18 371.19 300.648 370.033 301.363C369.525 301.677 328.41 261.572 278.666 212.241C183.09 117.458 180.175 114.795 158.473 102.411C130.492 86.4456 98.8434 78.1012 59.9731 76.4414C51.0356 76.0597 43.7231 75.3665 43.7231 74.9009C43.7231 73.8277 68.4982 74.0356 79.6724 75.2022ZM65.7245 96.125C107.495 98.9629 145.047 112.888 178.223 137.842C186.092 143.761 359.786 317.143 359.046 318.34C358.733 318.846 319.495 280.369 271.85 232.835C224.205 185.301 182.298 144.151 178.723 141.391C141.264 112.464 98.4832 98.0886 49.7231 98.0444C35.2399 98.0331 28.4372 97.3258 29.302 95.9266C29.9341 94.9038 49.3023 95.0093 65.7245 96.125ZM63.7231 116.158C107.725 119.997 146.415 135.638 178.723 162.649C189.389 171.566 348.289 330.821 347.404 331.707C347.001 332.11 309.445 295.297 263.947 249.899C209.338 195.411 178.046 164.927 171.874 160.205C145.83 140.281 119.824 128.4 88.576 122.151C74.3329 119.303 63.7536 118.313 38.9857 117.51C27.1294 117.126 17.9898 116.432 18.2948 115.938C18.961 114.86 50.6021 115.013 63.7231 116.158ZM53.7231 136.71C76.5325 138.896 89.8056 141.48 106.781 147.042C127.899 153.96 147.772 164.596 166.874 179.201C179.287 188.692 335.142 344.035 333.699 345.478C333.032 346.145 305.474 319.334 250.961 264.981C191.384 205.58 167.007 181.923 161.048 177.724C141.993 164.297 125.071 155.578 105.723 149.219C83.7526 141.998 66.0406 139.372 32.7847 138.406C20.1433 138.039 10.0345 137.359 10.3208 136.896C10.805 136.113 45.9189 135.962 53.7231 136.71ZM51.2231 157.182C94.0957 160.841 134.312 177.319 166.223 204.301C178.03 214.284 320.348 356.763 319.43 357.68C319.041 358.069 285.761 325.558 245.473 285.433C205.186 245.309 168.623 209.41 164.223 205.659C139.194 184.32 106.06 168.797 72.2231 162.559C59.1223 160.143 32.0259 158.144 11.4731 158.076C7.65457 158.065 4.72311 157.62 4.72311 157.054C4.72311 155.843 36.5614 155.931 51.2231 157.182ZM48.7231 177.221C91.0992 181.212 131.932 198.747 163.723 226.606C177.729 238.88 306.476 368.054 304.702 368.054C303.869 368.054 270.57 335.757 230.705 296.282C153.423 219.756 149.101 215.89 127.223 203.725C108.708 193.429 85.4125 185.384 63.1486 181.597C52.0369 179.707 29.254 178.089 13.4731 178.069C6.31631 178.061 1.72311 177.663 1.72311 177.054C1.72311 175.82 35.103 175.938 48.7231 177.221ZM22.7231 197.1C70.815 198.746 106.206 210.079 142.033 235.307C150.481 241.255 163.809 254.026 219.996 310.01C257.271 347.151 287.263 377.708 286.645 377.914C286.027 378.12 256.204 349.06 220.372 313.337C144.516 237.712 139.512 233.445 110.36 219.548C81.8072 205.938 57.8776 200.602 19.9425 199.387C6.75485 198.965 -0.218079 198.378 0.00497437 197.708C0.475647 196.297 -0.225555 196.315 22.7231 197.1ZM31.7231 216.154C75.5457 219.96 114.922 235.867 146.723 262.611C157.503 271.677 270.279 384.832 269.405 385.705C269.003 386.107 241.798 359.645 208.949 326.9C148.648 266.79 139.956 258.886 121.808 247.661C93.0378 229.864 59.2746 219.658 25.2231 218.463C7.49509 217.841 0.723114 217.156 0.723114 215.982C0.723114 214.883 18.1967 214.98 31.7231 216.154ZM29.7231 236.221C69.5866 239.976 108.012 255.55 138.723 280.4C150.612 290.02 251.527 390.583 250.412 391.699C250.013 392.098 226.183 369.029 197.455 340.436C168.728 311.843 141.623 285.583 137.223 282.081C103.167 254.973 66.072 241.037 20.0355 238.055C11.8887 237.527 4.88559 237.086 4.47311 237.075C4.06061 237.063 3.72308 236.604 3.72308 236.054C3.72308 234.862 16.1432 234.942 29.7231 236.221ZM24.6725 257.202C63.9806 261.307 101.609 276.659 132.223 301.081C144.521 310.892 229.212 395.48 227.159 395.902C226.029 396.134 210.513 381.361 180.346 351.33C155.528 326.624 132.298 304.137 128.723 301.36C121.141 295.469 107.972 286.864 98.7231 281.758C77.3713 269.97 41.4481 260.153 14.8017 258.824C11.5606 258.663 9.21466 258.051 8.96838 257.304C8.49454 255.866 11.6808 255.846 24.6725 257.202ZM32.2231 279.483C70.8715 286.244 103.05 301.483 131.723 326.605C147.934 340.808 204.448 398.054 202.259 398.054C201.029 398.054 186.786 384.611 163.765 361.722C143.667 341.739 123.539 322.615 119.036 319.225C93.1947 299.767 66.2815 288.128 32.9837 282.01C27.1282 280.934 21.1223 280.054 19.6372 280.054C18.1521 280.054 16.6781 279.379 16.3615 278.554C15.6289 276.645 16.1902 276.678 32.2231 279.483ZM37.7231 301.187C67.1185 307.937 94.2012 320.882 118.723 339.902C130.665 349.164 178.404 396.455 176.251 396.891C175.173 397.108 165.004 387.769 147.397 370.391C128.745 351.981 117.227 341.447 110.715 336.845C89.0456 321.529 66.1436 310.883 42.1496 304.971C35.04 303.219 28.5641 301.171 27.7588 300.42C25.813 298.605 26.8167 298.682 37.7231 301.187ZM56.6229 329.567C77.4082 337.112 98.6228 349.463 116.223 364.265C127.06 373.378 143.679 390.054 141.925 390.054C141.234 390.054 135.618 385.264 129.446 379.41C104.954 356.18 83.2467 342.095 56.491 332.073C51.6883 330.274 47.2457 328.184 46.6185 327.428C45.0178 325.499 45.9956 325.708 56.6229 329.567Z" fill="#A3A3A3"/>
<path d="M202.732 6.71826C207.402 9.83347 214.598 15.0818 218.723 18.3811C228.497 26.1991 397.723 195.06 397.723 196.995C397.723 197.809 358.686 159.533 310.973 111.938C225.506 26.681 216.071 17.8386 198.293 6.33002C193.219 3.04514 190.969 1.09622 192.232 1.08002C193.337 1.06488 198.062 3.60303 202.732 6.71826ZM228.723 3.16977C232 4.46561 395.723 168.054 395.723 170.032C395.723 170.867 359.611 135.525 315.473 91.4943C271.336 47.4639 232.88 9.32745 230.016 6.74664C224.634 1.89633 224.489 1.495 228.723 3.16977ZM163.723 8.45099C182.368 16.5645 197.749 25.771 213.223 38.0795C224.476 47.0299 397.108 219.398 396.537 221.113C396.26 221.946 360.426 186.972 305.152 131.922C212.398 39.5429 206.854 34.386 188.223 23.1592C180.017 18.2143 168.979 12.8036 159.39 9.02475C154.654 7.15872 153.068 6.13593 154.222 5.69318C155.137 5.34167 155.962 5.08414 156.055 5.12073C156.147 5.15851 159.598 6.65591 163.723 8.45099ZM325.881 71.7198C359.263 105.086 386.817 133.304 387.11 134.427C387.404 135.551 359.537 108.365 325.184 74.0149C290.83 39.6648 262.723 11.4464 262.723 11.3072C262.723 9.10547 274.632 20.4971 325.881 71.7198ZM132.764 21.0342C150.791 25.8729 168.592 33.5025 184.477 43.1979C202.852 54.4136 208.877 60.0395 301.473 152.446C351.661 202.53 392.723 244.185 392.723 245.013C392.723 245.841 351.661 205.533 301.473 155.44C246.765 100.834 206.819 61.7505 201.723 57.842C178.877 40.3202 155.577 29.0697 126.968 21.7466C121.878 20.4437 117.415 19.0798 117.051 18.7159C115.627 17.2912 122.717 18.3372 132.764 21.0342ZM92.7231 34.753C108.563 36.4666 134.881 42.9772 148.723 48.6061C166.274 55.7433 187.11 68.3158 201.623 80.5255C212.618 89.776 387.279 264.832 386.395 265.716C385.987 266.124 344.381 225.268 293.938 174.924C243.495 124.58 199.298 81.1212 195.723 78.3492C178.168 64.7379 156.09 53.0164 134.945 46.0818C123.327 42.2714 98.9347 37.0542 92.7383 37.0542C89.0746 37.0542 86.5819 36.0916 87.2878 34.9494C87.5921 34.4571 88.1521 34.1262 88.5321 34.2143C88.9122 34.3023 90.7981 34.5446 92.7231 34.753ZM319.723 41.4364C326.688 46.9839 356.621 77.399 359.698 82.0542C360.97 83.9792 351.146 74.7577 337.867 61.562C324.588 48.3663 313.723 37.4538 313.723 37.312C313.723 36.7367 314.452 37.2375 319.723 41.4364ZM82.2231 54.1616C125.448 58.1818 161.89 72.6406 193.723 98.4012C205.874 108.234 380.546 282.565 379.398 283.713C378.991 284.12 338.06 243.932 288.441 194.407C234.643 140.712 194.792 101.727 189.723 97.8356C176.977 88.0503 167.896 82.4798 153.36 75.5302C128.004 63.4085 106.003 58.0302 71.4697 55.5124C66.6262 55.1594 62.9676 54.4677 63.2788 53.9641C63.9265 52.9162 69.4521 52.9739 82.2231 54.1616ZM76.7231 75.1333C118.973 79.1424 154.957 93.4484 187.223 119.064C197.046 126.862 370.843 300.052 370.082 301.283C369.782 301.769 330.766 263.546 283.38 216.343C235.993 169.14 193.623 127.446 189.223 123.689C178.726 114.727 162.751 104.088 150.814 98.1096C123.416 84.3896 95.5439 77.7139 60.0099 76.3612C51.0927 76.0218 44.0318 75.3638 44.319 74.8991C44.9521 73.8747 64.9845 74.0193 76.7231 75.1333ZM62.2231 96.1526C107.51 98.5657 148.601 114.061 182.223 141.404C192.615 149.855 359.37 316.741 358.395 317.715C357.987 318.123 318.856 279.734 271.438 232.405C220.369 181.433 181.742 143.675 176.684 139.785C152.506 121.189 124.854 108.525 95.479 102.594C80.106 99.4897 67.8024 98.073 56.1267 98.0624C43.0182 98.0511 28.7007 96.8995 29.3142 95.9067C29.9196 94.9272 40.7437 95.008 62.2231 96.1526ZM61.9578 116.162C106.683 119.602 146.446 135.586 179.223 163.301C191.269 173.487 348.339 330.772 347.401 331.709C346.996 332.114 309.216 295.08 263.444 249.41C214.754 200.828 176.68 163.645 171.684 159.796C144.862 139.133 115.777 126.571 80.8441 120.561C70.4994 118.782 46.1483 117.134 29.4732 117.086C22.9941 117.067 18.7232 116.657 18.7232 116.054C18.7232 114.864 45.968 114.932 61.9578 116.162ZM53.2233 136.757C96.2834 139.703 136.465 155.051 169.223 181.066C179.26 189.037 335.329 344.562 334.071 345.339C333.563 345.653 296.477 309.565 251.659 265.144C200.474 214.412 167.12 182.116 161.968 178.296C140.056 162.049 117.292 151.331 91.2233 144.987C72.7816 140.499 60.3571 139.064 34.0093 138.377C20.6917 138.03 10.0307 137.366 10.3183 136.9C10.8082 136.108 42.1996 136.003 53.2233 136.757ZM48.9578 157.162C81.4142 159.658 111.79 168.972 138.237 184.537C159.28 196.921 164.502 201.683 244.197 281.168C285.982 322.843 319.833 357.277 319.422 357.689C319.01 358.1 284.822 324.677 243.448 283.414C160.536 200.723 154.76 195.586 129.64 182.181C111.666 172.59 89.7601 165.275 67.8441 161.544C57.3384 159.756 32.9959 158.133 15.9733 158.086C9.16083 158.067 4.72327 157.66 4.72327 157.054C4.72327 155.863 32.9649 155.932 48.9578 157.162ZM46.2233 177.153C84.6992 180.694 121.369 194.312 150.267 215.791C154.643 219.043 162.948 226.015 168.723 231.285C185.301 246.411 305.214 366.897 304.45 367.661C304.073 368.038 272.917 337.684 235.215 300.206C197.514 262.729 163.192 229.089 158.945 225.452C135.442 205.322 102.561 189.31 72.0478 183.134C56.0586 179.898 47.4442 179.047 23.9733 178.383C11.7357 178.037 1.72327 177.372 1.72327 176.904C1.72327 175.849 34.016 176.029 46.2233 177.153ZM37.2232 197.739C55.5151 199.336 78.6168 204.329 94.4446 210.107C114.505 217.431 136.61 230.278 153.223 244.27C165.096 254.27 288.644 378.054 286.751 378.054C285.945 378.054 255.571 348.431 219.254 312.224C174.605 267.71 150.362 244.274 144.389 239.848C106.702 211.925 65.5268 199.098 13.4733 199.063C5.64566 199.059 0.723267 198.668 0.723267 198.054C0.723267 197.112 27.4003 196.882 37.2232 197.739ZM29.3336 216.142C71.6706 219.199 109.617 233.66 142.723 259.355C151.366 266.063 269.781 384.153 269.05 385.335C268.736 385.842 241.422 359.284 208.351 326.317C174.802 292.872 144.449 263.468 139.684 259.797C112.844 239.116 83.7853 226.572 48.7618 220.547C40.7834 219.174 15.4432 217.219 3.97324 217.091C2.18573 217.072 0.723267 216.604 0.723267 216.054C0.723267 214.904 12.6949 214.941 29.3336 216.142ZM27.7233 236.19C69.807 240.019 110.606 256.57 140.78 282.052C151.776 291.338 250.702 390.28 250.048 391.337C249.741 391.835 225.804 368.669 196.856 339.856C167.908 311.044 141.073 284.961 137.223 281.896C103.259 254.851 67.0378 241.247 20.0665 237.894C11.0777 237.253 3.72324 236.351 3.72324 235.891C3.72324 234.877 14.8056 235.015 27.7233 236.19ZM17.7233 256.725C52.9054 260.254 78.5574 267.868 104.701 282.542C124.661 293.744 132.404 300.488 181.492 349.42C206.939 374.787 227.254 395.711 226.635 395.917C226.017 396.123 204.971 375.818 179.867 350.795C131.653 302.737 123.737 295.837 103.974 284.647C80.0776 271.117 54.968 263.064 27.2233 260.031C9.78333 258.125 8.72327 257.951 8.72327 256.993C8.72327 256.075 10.661 256.017 17.7233 256.725ZM27.2233 278.619C67.6123 284.772 102.016 300.75 132.723 327.616C146.147 339.361 204.51 398.054 202.764 398.054C201.969 398.054 186.896 383.735 169.27 366.233C151.645 348.732 133.295 331.012 128.494 326.857C100.766 302.857 66.6045 287.084 30.2232 281.482C24.1732 280.55 18.6607 279.637 17.9732 279.452C16.6512 279.098 16.1924 276.986 17.4733 277.151C17.8858 277.204 22.2733 277.865 27.2233 278.619ZM38.3215 301.585C68.4072 308.394 97.6656 322.671 120.991 341.925C130.787 350.011 177.563 397.054 175.807 397.054C175.037 397.054 162.44 385.211 147.815 370.736C133.19 356.261 117.623 341.772 113.223 338.538C89.9414 321.424 65.309 309.942 39.2233 304.044C30.0035 301.959 26.6866 300.697 27.7899 299.693C28.0284 299.477 32.7675 300.328 38.3215 301.585ZM57.256 329.973C78.9917 338.174 98.9232 349.872 116.723 364.873C128.032 374.404 143.696 390.054 141.926 390.054C141.237 390.054 135.172 384.829 128.449 378.442C104.328 355.532 83.1453 341.881 56.2232 331.899C48.4833 329.029 45.8722 327.572 46.8022 326.642C47.0471 326.397 51.7514 327.896 57.256 329.973Z" fill="#8C8C8C"/>
<path d="M202.858 6.89151C207.607 10.0795 214.286 15.0228 217.702 17.8765C227.527 26.0865 397.723 195.521 397.723 197.093C397.723 197.87 358.461 159.326 310.473 111.439C225.032 26.1775 215.919 17.6232 198.345 6.18262C194 3.35437 191.309 1.06335 192.345 1.07465C193.378 1.08597 198.109 3.70349 202.858 6.89151ZM313.006 85.8928C358.651 131.454 395.823 169.244 395.61 169.87C395.397 170.496 357.397 133.219 311.165 87.0312C264.933 40.8438 227.761 3.05408 228.561 3.05408C229.361 3.05408 267.361 40.3315 313.006 85.8928ZM168.099 10.5175C181.896 16.7392 193.026 23.2532 205.511 32.4132C214.248 38.8229 232.868 56.8949 306.473 130.4C356.111 179.971 396.723 220.971 396.723 221.512C396.723 222.054 356.561 182.415 307.473 133.425C248.058 74.1288 215.098 41.9636 208.874 37.2032C193.336 25.3194 179.627 17.3035 162.223 9.92719C156.581 7.53604 154.156 6.10355 155.723 6.08823C157.098 6.07309 162.667 8.06796 168.099 10.5175ZM265.223 12.0368C268.03 13.2379 386.313 132.109 387.135 134.554C387.505 135.654 359.663 108.43 325.265 74.0571C290.867 39.6837 262.723 11.4463 262.723 11.3071C262.723 10.9821 262.835 11.0149 265.223 12.0368ZM127.723 19.6867C146.661 24.6826 166.052 32.5998 181.234 41.5348C202.684 54.1586 206.581 57.7546 301.973 152.942C351.886 202.748 392.723 244.175 392.723 245.003C392.723 245.831 351.211 205.078 300.473 154.44C249.736 103.803 205.523 60.3378 202.223 57.8508C178.964 40.3215 151.668 27.2708 126.223 21.5132C121.823 20.5176 117.796 19.332 117.273 18.8785C115.82 17.6174 121.562 18.0615 127.723 19.6867ZM99.7231 35.7537C141.621 42.9145 173.76 57.1929 202.223 81.2917C212.717 90.1764 387.399 264.712 386.598 265.512C386.302 265.809 344.246 224.534 293.141 173.79C240.098 121.121 196.959 79.0885 192.618 75.8438C184.752 69.9652 170.528 61.0175 162.795 57.0842C146.397 48.743 119.204 40.3968 100.723 38.0329C88.3124 36.4455 84.228 35.1913 91.7231 35.2692C94.7481 35.2995 98.3481 35.5186 99.7231 35.7537ZM335.903 56.8041C345.266 66.0166 354.303 75.3541 355.985 77.5541C357.666 79.7541 349.746 72.3332 338.383 61.0632C327.02 49.7933 317.723 40.4558 317.723 40.3133C317.723 39.1691 321.02 42.1592 335.903 56.8041ZM79.9576 54.1616C113.978 56.7782 145.589 66.8237 172.833 83.6763C191.855 95.4426 198.79 101.913 290.223 193.192C339.723 242.608 379.683 283.043 379.023 283.047C378.363 283.051 336.513 241.992 286.023 191.804C208.815 115.058 192.579 99.39 183.877 93.2308C151.03 69.9814 116.659 58.273 72.9929 55.4586C67.3662 55.0958 63.0053 54.4066 63.3018 53.9267C63.8967 52.9643 64.5012 52.9727 79.9576 54.1616ZM70.2231 74.7143C115.023 78.3436 150.438 91.4307 184.223 116.842C190.799 121.788 369.723 299.917 369.723 301.517C369.723 302.061 330.011 262.884 281.473 214.456C232.936 166.028 189.623 123.55 185.223 120.06C148.681 91.0759 104.077 76.0541 54.5581 76.0541C47.5107 76.0541 43.8255 75.6977 44.2231 75.0541C44.796 74.1272 60.4499 73.9226 70.2231 74.7143ZM56.7231 96.0788C94.0543 97.5585 125.711 106.188 154.994 122.866C176.775 135.272 180.823 138.98 272.692 230.659C320.25 278.119 358.938 317.173 358.664 317.446C358.391 317.719 318.354 278.481 269.693 230.249C199.875 161.046 179.271 141.184 171.98 136.054C132.428 108.227 94.1737 97.3499 34.9141 97.0826C30.9692 97.0637 28.8367 96.6794 29.2231 96.0541C29.5629 95.5041 31.9521 95.1286 34.5321 95.2196C37.1122 95.3107 47.0981 95.6973 56.7231 96.0788ZM58.7231 116.147C101.292 118.659 140.403 133.153 173.573 158.708C182.264 165.404 348.636 330.475 347.668 331.442C347.397 331.714 309.386 294.496 263.199 248.736C217.012 202.976 176.298 163.235 172.723 160.422C144.386 138.132 109.709 123.93 71.7231 119.059C67.0481 118.46 53.2106 117.694 40.9731 117.357C28.7356 117.02 18.7231 116.365 18.7231 115.9C18.7231 114.897 39.74 115.027 58.7231 116.147ZM54.7231 137.135C96.9706 140.339 134.758 154.581 166.723 179.345C173.915 184.917 333.723 343.946 333.723 345.531C333.723 346.077 298.736 311.612 255.973 268.942C213.211 226.272 174.874 188.526 170.78 185.063C153.84 170.731 127.411 155.931 106.723 149.191C83.663 141.679 66.8977 139.148 34.9731 138.361C21.6356 138.033 10.7231 137.379 10.7231 136.909C10.7231 135.876 40.108 136.027 54.7231 137.135ZM45.2963 157.139C89.8354 159.837 128.294 174.478 163.223 202.034C173.181 209.89 320.452 356.659 319.416 357.695C319.001 358.11 284.588 324.456 242.942 282.908C198.604 238.674 163.7 204.664 158.723 200.845C129.311 178.277 96.575 164.924 58.7231 160.056C54.0481 159.455 39.9856 158.689 27.4731 158.355C14.9606 158.02 4.72308 157.366 4.72308 156.9C4.72308 155.895 26.9115 156.026 45.2963 157.139ZM39.2231 176.719C50.9489 177.684 63.314 179.347 72.1816 181.151C100.318 186.875 129.65 200.351 154.223 218.844C160.801 223.794 304.96 367.15 304.163 367.948C303.891 368.219 272.069 336.933 233.446 298.422C194.824 259.912 159.398 225.37 154.723 221.664C132.842 204.315 105.632 191.088 78.2589 184.495C61.0201 180.343 49.0935 178.968 24.9731 178.352C12.1856 178.026 1.72311 177.375 1.72311 176.906C1.72311 176.116 30.1705 175.975 39.2231 176.719ZM35.2231 197.757C81.6035 200.93 124.936 218.934 158.223 248.862C171.594 260.883 287.284 376.826 286.596 377.515C286.298 377.812 255.942 348.239 219.139 311.796C182.335 275.353 148.759 242.945 144.526 239.778C107.745 212.268 65.7342 199.054 15.0494 199.054C6.16519 199.054 0.723083 198.674 0.723083 198.054C0.723083 197.109 22.9564 196.917 35.2231 197.757ZM25.2231 216.124C69.3951 218.553 107.668 232.564 141.573 258.716C150.885 265.899 271.054 385.027 269.005 385.044C268.335 385.052 240.66 358.155 207.505 325.277C174.35 292.4 144.298 263.207 140.723 260.405C112.329 238.146 77.1629 223.724 40.1252 219.149C35.6713 218.598 24.9838 217.834 16.3752 217.45C7.76651 217.066 0.723083 216.37 0.723083 215.903C0.723083 214.96 4.71078 214.995 25.2231 216.124ZM25.2231 236.148C67.8632 239.617 106.03 254.456 138.223 280.081C148.383 288.167 251.181 390.401 249.662 390.908C249.04 391.115 224.386 367.243 194.877 337.857C143.504 286.701 135.225 279.146 119.18 268.777C90.3941 250.173 55.5862 239.556 16.4731 237.449C9.4606 237.071 3.72314 236.378 3.72314 235.908C3.72314 234.916 11.0962 234.998 25.2231 236.148ZM16.2231 256.73C62.7597 260.682 102.253 276.306 134.723 303.611C143.465 310.962 228.664 396.054 227.283 396.054C226.77 396.054 206.747 376.575 182.787 352.768C158.827 328.961 135.623 306.609 131.223 303.097C97.6601 276.309 63.0137 262.968 15.4731 258.526C11.7606 258.179 8.72314 257.481 8.72314 256.974C8.72314 256.468 9.51062 256.13 10.4731 256.222C11.4356 256.315 14.0231 256.543 16.2231 256.73ZM30.2231 279.187C65.5952 285.617 94.9396 298.27 122.223 318.856C128.871 323.872 202.961 397.15 202.177 397.934C201.906 398.205 185.83 382.688 166.454 363.452C121.266 318.593 113.309 312.208 86.2231 299.062C66.3023 289.394 49.4254 284.121 28.7231 281.096C18.1514 279.552 14.2916 278.171 20.7231 278.234C23.1981 278.256 27.4731 278.687 30.2231 279.187ZM43.2231 303.002C73.3923 310.837 99.5221 324.155 122.223 343.268C131.926 351.437 177.794 397.054 176.305 397.054C175.809 397.054 164.563 386.356 151.313 373.28C118.369 340.768 106.399 331.455 82.2231 319.521C75.0731 315.992 65.3981 311.77 60.7231 310.14C51.2218 306.827 33.4846 302.054 30.6727 302.054C29.6654 302.054 28.563 301.604 28.2231 301.054C27.2069 299.41 31.5764 299.977 43.2231 303.002ZM59.2231 330.937C86.937 341.525 112.298 358.683 136.223 383.032C147.023 394.023 140.607 390.075 128.223 378.109C105.247 355.909 83.8882 342.089 56.9827 332.014C51.9005 330.111 47.738 328.217 47.7328 327.804C47.7176 326.634 48.5677 326.866 59.2231 330.937Z" fill="white"/>
</g>
<defs>
<clipPath id="clip0_5_14107">
<rect width="398.723" height="398.054" fill="white" transform="translate(200 246)"/>
</clipPath>
<clipPath id="clip1_5_14107">
<rect width="398.723" height="398.054" fill="white" transform="matrix(-1 0 0 -1 398.723 398.054)"/>
</clipPath>
</defs>
</svg>
