<svg width="27" height="27" viewBox="0 0 27 27" fill="none" xmlns="http://www.w3.org/2000/svg">
<g clip-path="url(#clip0_4_14035)">
<path d="M0 0V27H27V0H0ZM6.62146 5.30804C7.69088 5.32008 8.74433 6.05786 8.79017 7.33502C8.81303 8.47071 7.82332 9.33574 6.59345 9.362H6.56379C5.50501 9.34978 4.47102 8.59349 4.4231 7.33502C4.43819 6.21198 5.3822 5.33468 6.62146 5.30804ZM18.0945 10.6738C19.2702 10.6811 20.3798 11.0299 21.2915 11.9592C22.2389 13.0158 22.543 14.4727 22.5769 15.9538V22.6906H18.6943V16.4119C18.6857 15.2351 18.2826 13.8047 16.725 13.7571C15.8122 13.7668 15.1685 14.2972 14.7277 15.1842C14.6074 15.4697 14.5901 15.7979 14.5843 16.1252V22.6906H10.7034C10.7183 19.4084 10.7387 16.1264 10.7314 12.8441C10.7314 11.9118 10.7225 11.284 10.7034 10.9605H14.5843V12.6151C14.9138 12.1465 15.2791 11.7022 15.7692 11.3445C16.434 10.8701 17.2325 10.6882 18.0945 10.6738ZM4.65217 10.9605H8.53308V22.6906H4.65217V10.9605Z" fill="#D8241C"/>
</g>
<defs>
<clipPath id="clip0_4_14035">
<rect width="27" height="27" fill="white"/>
</clipPath>
</defs>
</svg>
