<svg width="20" height="20" viewBox="0 0 20 20" fill="none" xmlns="http://www.w3.org/2000/svg">
<path d="M10 3.7334C10.6296 3.7334 11.2451 3.9201 11.7686 4.26989C12.2921 4.61968 12.7001 5.11684 12.941 5.69852C13.182 6.2802 13.245 6.92026 13.1222 7.53777C12.9994 8.15528 12.6962 8.72249 12.251 9.16769C11.8058 9.61289 11.2386 9.91607 10.6211 10.0389C10.0035 10.1617 9.36348 10.0987 8.78181 9.85775C8.20013 9.61681 7.70296 9.20879 7.35317 8.6853C7.00338 8.1618 6.81668 7.54634 6.81668 6.91673C6.81668 6.07246 7.15207 5.26277 7.74906 4.66578C8.34605 4.06878 9.15574 3.7334 10 3.7334ZM10 8.98895C10.4099 8.98895 10.8105 8.86742 11.1513 8.63972C11.4921 8.41202 11.7577 8.08839 11.9145 7.70974C12.0713 7.33109 12.1124 6.91443 12.0324 6.51246C11.9525 6.11049 11.7551 5.74125 11.4653 5.45145C11.1755 5.16164 10.8063 4.96428 10.4043 4.88433C10.0023 4.80437 9.58566 4.84541 9.20701 5.00225C8.82836 5.15909 8.50472 5.42469 8.27703 5.76547C8.04933 6.10624 7.92779 6.50688 7.92779 6.91673C7.92926 7.46536 8.14824 7.99101 8.53669 8.37842C8.92515 8.76584 9.45139 8.9834 10 8.9834V8.98895Z" fill="#D4233D"/>
<path d="M9.99999 1.11108C11.7304 1.11253 13.39 1.79869 14.6162 3.01969C15.8424 4.2407 16.5356 5.89733 16.5444 7.62775C16.5444 10.2222 15.0889 12.3944 14.0222 13.9778L13.8278 14.2666C12.7665 15.8048 11.628 17.2881 10.4167 18.7111L9.99443 19.2055L9.57221 18.7111C8.36102 17.288 7.22253 15.8046 6.1611 14.2666L5.96665 13.9722C4.90554 12.3889 3.44999 10.2222 3.44999 7.62775C3.4588 5.89637 4.15277 4.2389 5.38018 3.01773C6.60759 1.79657 8.26858 1.11106 9.99999 1.11108ZM6.89443 13.3333L7.09443 13.6278C8.04999 15.0611 9.31666 16.6666 9.99999 17.4611C10.6555 16.6666 11.95 15.0611 12.9055 13.6278L13.1 13.3333C14.0833 11.8666 15.4333 9.86108 15.4333 7.60553C15.4333 6.89201 15.2928 6.18548 15.0197 5.52628C14.7467 4.86708 14.3465 4.26811 13.8419 3.76358C13.3374 3.25905 12.7384 2.85883 12.0792 2.58578C11.42 2.31273 10.7135 2.1722 9.99999 2.1722C9.28647 2.1722 8.57994 2.31273 7.92074 2.58578C7.26154 2.85883 6.66257 3.25905 6.15804 3.76358C5.65351 4.26811 5.25329 4.86708 4.98024 5.52628C4.70719 6.18548 4.56665 6.89201 4.56665 7.60553C4.56665 9.88331 5.9111 11.8889 6.89443 13.3333Z" fill="#D4233D"/>
</svg>
